<svg id="Слой_1" height="512" viewBox="0 0 512 512" width="512" xmlns="http://www.w3.org/2000/svg"><g><g><path d="m279.21 98.043s28.448-11.62 30.514 5.603c2.08 17.333-27.733 18.027-27.733 18.027z" fill="#768901"/></g><g><path d="m285.098 133.018s23.766-7.562 24.846 6.482c1.08 14.043-27.007 12.963-27.007 12.963z" fill="#768901"/></g><g><path d="m287.258 169.747s20.525-6.482 21.605 4.321-21.605 12.963-21.605 12.963z" fill="#768901"/></g><g><path d="m286.178 206.476s20.525-6.482 22.686 4.321-22.686 11.883-22.686 11.883z" fill="#768901"/></g><g><path d="m286.178 243.205s19.445-5.401 20.525 4.321c1.451 13.062-20.525 9.722-20.525 9.722z" fill="#768901"/></g><g><path d="m289.552 283.093s16.178-12.064 20.699-3.389c6.074 11.654-15.624 16.483-15.624 16.483z" fill="#768901"/></g><g><path d="m305.283 316.974s13.13-15.326 19.448-7.857c8.488 10.034-11.617 19.515-11.617 19.515z" fill="#768901"/></g><g><path d="m323.373 347.369s10.718-17.1 18.071-10.648c9.879 8.668-8.603 21.019-8.603 21.019z" fill="#768901"/></g><g><path d="m347.228 370.763s9.682-17.707 17.406-11.705c10.377 8.064-7.336 21.494-7.336 21.494z" fill="#768901"/></g><g><path d="m376.512 390.089s8.718-15.73 14.838-11.559c8.222 5.603-4.528 16.587-4.528 16.587z" fill="#768901"/></g><g><path d="m406.733 404.277s4.982-17.281 11.879-14.583c9.266 3.624-.706 17.179-.706 17.179z" fill="#768901"/></g><g><path d="m281.991 123.673c-1.012 0-1.868-.757-1.986-1.767l-2.781-23.63c-.105-.893.398-1.746 1.23-2.086.744-.304 18.327-7.38 27.671-1.882 3.209 1.888 5.089 4.949 5.587 9.098.503 4.195-.59 7.879-3.251 10.949-7.609 8.78-25.658 9.299-26.423 9.317-.016.001-.031.001-.047.001zm-.612-24.318 2.38 20.211c4.559-.356 16.498-1.846 21.682-7.834 1.915-2.212 2.667-4.778 2.298-7.848-.346-2.883-1.536-4.887-3.64-6.125-5.775-3.401-17.27-.377-22.72 1.596z" fill="#4c5600"/></g><g><path d="m284.383 154.485c-.86 0-1.403-.019-1.523-.023-.555-.021-1.077-.272-1.439-.693-.362-.422-.534-.974-.472-1.526l2.16-19.445c.087-.785.629-1.446 1.382-1.685.628-.2 15.461-4.833 23.054.283 2.647 1.784 4.125 4.459 4.394 7.951.247 3.207-.748 5.996-2.956 8.291-6.063 6.298-19.95 6.847-24.6 6.847zm2.556-19.921-1.769 15.921c5.817-.076 16.62-1.14 20.932-5.624 1.4-1.456 2.005-3.16 1.847-5.207-.172-2.242-1.035-3.857-2.638-4.938-4.503-3.039-13.854-1.379-18.372-.152z" fill="#4c5600"/></g><g><path d="m287.258 189.032c-.496 0-.976-.184-1.346-.521-.417-.379-.654-.916-.654-1.48v-17.284c0-.873.566-1.645 1.398-1.908 1.432-.452 14.183-4.298 20.616-.06 2.083 1.372 3.321 3.477 3.582 6.089.248 2.485-.468 4.77-2.13 6.791-5.588 6.797-20.639 8.302-21.277 8.363-.063.007-.126.01-.189.01zm2.001-17.781v13.507c4.829-.746 13.184-2.755 16.377-6.641.973-1.185 1.378-2.444 1.237-3.85-.143-1.431-.716-2.431-1.802-3.147-3.652-2.405-11.669-.972-15.812.131z" fill="#4c5600"/></g><g><path d="m286.178 224.681c-.514 0-1.011-.198-1.384-.555-.394-.378-.617-.9-.617-1.445v-16.204c0-.873.566-1.645 1.398-1.908.566-.179 13.946-4.329 21.026-.145 2.278 1.346 3.699 3.359 4.223 5.982.48 2.396-.062 4.677-1.566 6.595-5.269 6.72-21.195 7.6-22.994 7.678-.028.001-.058.002-.086.002zm2-16.698v12.552c5.328-.487 14.885-2.116 17.933-6.005.793-1.012 1.044-2.073.791-3.341-.297-1.481-1.059-2.567-2.333-3.32-4.074-2.411-12.225-.985-16.391.114z" fill="#4c5600"/></g><g><path d="m291.88 259.63c-3.264 0-5.764-.367-6.003-.403-.978-.149-1.7-.989-1.7-1.978v-14.043c0-.899.599-1.687 1.465-1.928 1.38-.382 13.663-3.628 19.733.476 1.909 1.291 3.056 3.211 3.316 5.552.377 3.391-.541 6.176-2.728 8.277-3.468 3.331-9.522 4.047-14.083 4.047zm-3.702-4.16c4.185.376 11.771.345 15.015-2.775 1.259-1.211 1.756-2.829 1.521-4.948-.132-1.188-.635-2.039-1.58-2.679-3.388-2.292-10.946-1.212-14.956-.301z" fill="#4c5600"/></g><g><path d="m294.627 298.188c-.81 0-1.561-.495-1.864-1.278l-5.076-13.094c-.325-.838-.051-1.789.669-2.327 1.15-.856 11.432-8.319 18.571-6.688 2.247.514 4.01 1.89 5.098 3.979 1.577 3.026 1.728 5.954.448 8.704-3.482 7.479-16.844 10.53-17.411 10.656-.145.032-.291.048-.435.048zm-2.645-14.361 3.868 9.978c4.038-1.161 11.1-3.933 12.997-8.014.736-1.584.615-3.273-.37-5.163-.552-1.059-1.327-1.672-2.44-1.927-3.975-.913-10.641 2.828-14.055 5.126z" fill="#4c5600"/></g><g><path d="m313.115 330.633c-.649 0-1.28-.316-1.662-.885l-7.831-11.658c-.501-.746-.444-1.735.141-2.417.931-1.087 9.3-10.608 16.62-10.608h.026c2.305.007 4.327.962 5.848 2.76 2.204 2.605 2.994 5.429 2.35 8.392-1.752 8.063-14.116 13.977-14.641 14.225-.273.129-.564.191-.851.191zm-5.3-13.478 5.968 8.885c3.684-2.021 9.964-6.277 10.917-10.675.37-1.708-.12-3.328-1.496-4.956-.772-.912-1.664-1.339-2.806-1.342-.005 0-.01 0-.015 0-4.089-.001-9.751 5.1-12.568 8.088z" fill="#4c5600"/></g><g><path d="m332.843 359.74c-.547 0-1.087-.223-1.478-.652l-9.469-10.371c-.606-.664-.695-1.65-.218-2.411.761-1.214 7.644-11.893 14.894-12.954 2.28-.333 4.421.311 6.192 1.864 2.565 2.251 3.765 4.926 3.566 7.953-.54 8.233-11.893 15.911-12.376 16.234-.34.227-.727.337-1.111.337zm-6.939-12.567 7.216 7.904c3.345-2.544 8.926-7.683 9.218-12.173.113-1.743-.61-3.274-2.212-4.679-.899-.788-1.844-1.079-2.974-.913-4.047.592-8.901 6.485-11.248 9.861z" fill="#4c5600"/></g><g><path d="m357.298 382.553c-.506 0-1.009-.191-1.395-.566l-10.069-9.789c-.644-.627-.792-1.606-.361-2.394.688-1.257 6.923-12.326 14.096-13.817 2.254-.47 4.432.048 6.292 1.493 2.694 2.093 4.051 4.693 4.033 7.726-.049 8.251-10.925 16.591-11.388 16.942-.359.27-.785.405-1.208.405zm-7.554-12.135 7.673 7.459c3.187-2.738 8.453-8.2 8.477-12.7.01-1.747-.804-3.231-2.486-4.539-.944-.733-1.903-.966-3.021-.735-3.995.828-8.497 7.003-10.643 10.515z" fill="#4c5600"/></g><g><path d="m386.822 397.117c-.298 0-.597-.066-.876-.202l-10.31-5.028c-.493-.241-.866-.674-1.031-1.197-.165-.524-.108-1.092.158-1.572.658-1.186 6.603-11.632 12.819-13.109 1.757-.417 3.45-.118 4.895.866 2.234 1.523 3.487 3.605 3.624 6.022.36 6.363-7.118 12.998-7.972 13.734-.372.32-.837.486-1.307.486zm-7.481-7.875 7.13 3.477c2.223-2.166 5.819-6.383 5.635-9.599-.042-.74-.284-1.849-1.882-2.938-.517-.353-1.046-.439-1.715-.28-2.91.69-6.765 5.525-9.168 9.34z" fill="#4c5600"/></g><g><path d="m417.906 408.873c-.15 0-.302-.017-.453-.052l-11.173-2.596c-.534-.125-.994-.463-1.272-.936s-.349-1.04-.197-1.567c.376-1.303 3.836-12.814 9.565-15.643 1.62-.799 3.336-.886 4.965-.25 2.518.985 4.205 2.735 4.878 5.059 1.773 6.122-4.033 14.261-4.701 15.169-.383.521-.985.816-1.612.816zm-8.607-6.054 7.728 1.795c1.683-2.608 4.246-7.522 3.348-10.615-.207-.712-.69-1.739-2.491-2.443-.582-.228-1.118-.194-1.736.11-2.688 1.328-5.362 6.9-6.849 11.153z" fill="#4c5600"/></g><g><g><path d="m200.092 393.567s-1.126 22.114 1.675 37.424c0 0-19.212 8.08-18.5 11.144.713 3.065 15.998 1.789 18.274 2.59 2.277.801-.963 12.195 1.3 13.759 2.264 1.564 12.396-11.244 13.922-11.219s10.506 10.857 13.583 9.381-3.452-22.189-3.452-22.189l5.767-25.854z" fill="#768901"/></g><g><path d="m203.293 460.639c-.563 0-1.089-.165-1.588-.509-2.083-1.439-1.813-4.948-1.499-9.011.106-1.384.275-3.563.148-4.587-.968-.095-2.857-.126-4.435-.152-8.568-.141-13.826-.466-14.599-3.79-.32-1.375-1.058-4.549 18.208-12.819-2.468-15.221-1.478-35.422-1.433-36.303.034-.664.395-1.267.963-1.61.568-.344 1.269-.383 1.874-.105l32.571 15.036c.855.395 1.319 1.333 1.114 2.252l-5.65 25.331c6.837 21.88 3.507 23.476 2.248 24.08-2.973 1.427-6.626-1.665-11.859-6.543-.824-.768-1.869-1.741-2.56-2.311-.848.746-2.245 2.17-3.333 3.28-4.657 4.744-7.757 7.76-10.17 7.761zm-17.485-19.017c2.19.626 7.446.712 10.175.756 3.388.056 5.204.101 6.222.459 2.582.909 2.32 4.298 1.989 8.589-.107 1.399-.271 3.519-.171 4.77 1.714-1.159 4.791-4.297 6.58-6.122 3.679-3.752 4.843-4.86 6.193-4.81 1.261.021 2.274.909 5.284 3.715 1.67 1.556 5.349 4.985 7.093 5.68.318-2.812-1.781-11.97-4.186-19.601-.106-.336-.121-.693-.044-1.037l5.416-24.278-28.378-13.1c-.189 6.509-.373 22.363 1.754 33.988.169.923-.327 1.84-1.192 2.204-6.767 2.847-14.418 6.75-16.735 8.787z" fill="#4c5600"/></g></g><g><path d="m168.624 228.163s-12.804 9.939-32.077 15.836c-14.384 4.401-30.06-.885-31.68 1.702s7.761 4.859 7.435 8.256-9.061 1.53-9.387 4.927c-.301 3.132 10.107 5.427 10.185 8.178.079 2.75-8.74 5.332-7.368 8.892.776 2.014 18.485 3.178 36.734-2.538 19.723-6.178 44.06-23.657 44.06-23.657z" fill="#768901"/></g><g><path d="m115.46 279.611c-10.462 0-11.305-2.189-11.593-2.938-1.332-3.455 2.122-5.86 4.644-7.616.756-.526 1.939-1.349 2.427-1.885-.693-.606-2.478-1.512-3.606-2.084-3.291-1.669-6.695-3.396-6.407-6.395.31-3.224 3.802-3.814 6.352-4.245.893-.151 2.503-.423 3.008-.756-.29-.62-2.273-1.862-3.246-2.471-1.154-.722-2.243-1.404-3.043-2.183-2.006-1.954-1.244-3.727-.824-4.399 1.313-2.097 4.359-1.834 9.892-1.353 6.24.541 14.784 1.283 22.899-1.2 18.704-5.723 31.309-15.406 31.435-15.503.854-.662 2.078-.526 2.767.304l17.904 21.595c.354.427.515.982.444 1.532s-.367 1.046-.818 1.37c-1.004.721-24.826 17.739-44.629 23.941-10.924 3.422-20.645 4.137-25.467 4.258-.754.019-1.467.028-2.139.028zm-7.743-4.731c3.46 1.095 18.441 1.547 34.153-3.374 16.183-5.069 35.823-18.083 41.731-22.145l-15.316-18.473c-4.015 2.828-15.403 10.205-31.152 15.024-8.857 2.71-18.219 1.898-24.415 1.36-1.658-.144-3.578-.31-4.927-.323.455.308.96.624 1.37.882 2.537 1.588 5.414 3.389 5.132 6.318-.31 3.224-3.802 3.814-6.352 4.245-.829.14-2.276.384-2.883.685.689.721 2.857 1.82 4.082 2.442 3.16 1.602 5.888 2.986 5.959 5.484.066 2.294-2.057 3.771-4.304 5.336-.82.572-2.59 1.804-3.078 2.539zm3.416-7.979s0 0 0 0z" fill="#4c5600"/></g><g><path d="m345.463 438.013c-63.917-2.458-138.836-5.66-177.753-58.313-34.653-46.883-5.931-148.774-3.333-160.899 2.458-11.471 6.083-27.089 6.083-27.089s-42.589.744-70.468-4.097c-28.609-4.968-29.134-18.289-32.247-26.158-2.648-6.694-5.792-40.164 5.679-43.441 11.281-3.223 13.398 8.339 13.398 8.339s.001-13.746 11.446-12.972c7.931.536 11.446 11.446 11.446 11.446 43.496-12.209 56.468-4.579 63.336-4.579s6.105-6.105 6.105-6.105 12.475-33.142 25.182-35.865c10.683-2.289 19.901 9.502 22.953 9.502 3.815 0 12.801-13.845 28.936-12.554 19.077 1.526 30.523 22.13 32.05 36.628 1.526 14.499.763 89.281.763 89.281s-5.96 113.495 58.583 168.818c52.933 45.371 113.287 36.398 114.508 52.933.555 7.482-60.493 17.286-116.667 15.125z" fill="#89a401"/></g><g><path d="m65.583 148.425s-.946 12.946 80.031 13.04 77.199-17.31 77.199-17.31 3.815 27.873-74.406 30.77c-61.691 2.285-78.142-8.225-78.142-8.225z" fill="#4c5600"/></g><g><path d="m167.71 379.701c38.917 52.653 113.836 55.854 177.753 58.313 56.174 2.161 117.221-7.644 116.669-15.124-141.515 4.321-178.244-29.167-206.202-54.373-45.4-40.933-5.401-112.348-22.686-141.515-14.037-23.688-53.372-19.817-67.521-17.173 0 0-19.24 68.12-15.08 113.36 4.161 45.239 17.067 56.512 17.067 56.512z" fill="#ffe862"/></g><g><path d="m438.341 425.265c-122.463 0-157.51-31.604-183.514-55.05l-.236-.213c-28.426-25.629-24.373-61.969-20.797-94.032 2.222-19.924 4.141-37.13-2.27-47.949-14.447-24.382-57.04-17.793-65.433-16.226l-.735-3.933c8.85-1.655 53.803-8.554 69.609 18.119 7.094 11.971 5.106 29.794 2.804 50.432-3.469 31.106-7.402 66.363 19.5 90.617l.236.213c27.115 24.448 64.256 57.938 204.564 53.647l.122 3.999c-8.297.254-16.244.376-23.85.376z" fill="#777c0d"/></g><g><path d="m233.575 154.533c-.093 0-.188-.007-.283-.02-7.469-1.058-12.286-6.935-13.564-16.547-.146-1.095.624-2.101 1.719-2.247 1.097-.147 2.102.625 2.247 1.719.722 5.428 3.07 12.108 10.16 13.114 1.094.155 1.855 1.167 1.7 2.261-.142.999-.999 1.72-1.979 1.72z" fill="#4c5600"/></g><g><g><path d="m97.944 120.308c-5.374.537-5.046 15.231.748 15.231 4.756 0 6.133-15.919-.748-15.231z" fill="#768901"/></g><g><path d="m98.691 137.539c-3.647 0-6.279-3.66-6.551-9.107-.228-4.579 1.428-9.697 5.604-10.115 2.17-.217 4.051.689 5.296 2.548 2.394 3.575 1.963 9.999.079 13.528-1.461 2.737-3.401 3.146-4.428 3.146zm-.321-15.252c-.073 0-.149.004-.228.012h-.001c-1.081.108-2.168 2.669-2.006 5.934.149 2.975 1.27 5.305 2.555 5.305.109 0 .488-.259.899-1.029 1.413-2.648 1.477-7.4.126-9.417-.374-.561-.775-.805-1.345-.805zm-.426-1.979h.01z" fill="#4c5600"/></g></g><g><path d="m237.724 130.039c-5.679 2.463-6.786 11.527-1.868 15.285s13.373.307 14.257-5.819-6.25-11.826-12.03-9.612z" fill="#fd4d4d"/></g><g><path d="m235.754 254.003c-34.201-6.691-78.404-6.297-78.849-6.295l-.043-4.001c.448-.005 45.06-.4 79.659 6.369z" fill="#777c0d"/></g><g><path d="m233.43 292.573c-29.657-6.672-81.414-4.514-81.933-4.492l-.174-3.997c.525-.022 52.814-2.203 82.985 4.586z" fill="#777c0d"/></g><g><path d="m151.611 328.924-.403-3.98c2.447-.248 60.197-6.054 83.547-4.544l-.258 3.992c-23.023-1.486-82.29 4.472-82.886 4.532z" fill="#777c0d"/></g><g><path d="m162.1 372.053-.2-3.996c.449-.023 45.308-2.397 80.254-15.104l1.367 3.76c-35.52 12.917-80.966 15.317-81.421 15.34z" fill="#777c0d"/></g><g><path d="m274.665 146.589c-7.008-1.402-8.534 29.157-1.422 28.446 7.111-.711 8.533-27.024 1.422-28.446z" fill="#b7ce11"/></g><g><path d="m263.286 183.569c-7.103-.789-5.689 18.49-.711 19.912 4.978 1.423 7.112-19.201.711-19.912z" fill="#b7ce11"/></g><g><path d="m278.932 204.193c-5.654-.628-4.978 13.512-1.422 14.223 3.555.711 7.822-13.512 1.422-14.223z" fill="#b7ce11"/></g><g><path d="m282.488 278.864c-5.84-.531-2.845 20.623 2.134 19.912 4.977-.711 5.688-19.201-2.134-19.912z" fill="#b7ce11"/></g><g><path d="m274.137 308.617c-6.4 2.845 1.422 21.335 6.4 19.201 4.978-2.133 0-22.045-6.4-19.201z" fill="#b7ce11"/></g><g><path d="m293.627 314.734c-5.402 1.291 4.289 15.848 7.966 13.162 3.677-2.687-2.931-14.365-7.966-13.162z" fill="#b7ce11"/></g><g><path d="m311.87 347.215c-5.188 2.735 7.535 22.975 11.493 19.872 3.956-3.103-5.525-23.018-11.493-19.872z" fill="#b7ce11"/></g><g><path d="m338.169 377.331c-2.582 3.471 9.287 10.866 10.228 7.828.94-3.038-6.806-12.428-10.228-7.828z" fill="#b7ce11"/></g><g><path d="m295.288 342.868c-2.414 3.218 5.689 8.534 7.112 6.4 1.422-2.133-4.978-9.244-7.112-6.4z" fill="#b7ce11"/></g><g><path d="m320.584 378.212c-2.028 2.117 5.2 7.936 7.66 5.368 1.773-1.851-4.709-8.449-7.66-5.368z" fill="#b7ce11"/></g><g><path d="m361.576 389.906c-1.227 3.961 9.736 8.341 11.168 4.79 1.331-3.298-10.227-7.828-11.168-4.79z" fill="#b7ce11"/></g><g><path d="m277.509 127.388c-4.267 0-2.133 9.245 0 9.245 2.134 0 4.267-9.245 0-9.245z" fill="#b7ce11"/></g><g><path d="m418.817 411.527c.6-3.576-16.67-5.532-17.194-1.944-.523 3.588 16.11 8.41 17.194 1.944z" fill="#b7ce11"/></g><g><path d="m392.087 406.612c1.906-3.085-11.375-8.298-13.636-4.346-2.261 3.953 10.189 9.923 13.636 4.346z" fill="#b7ce11"/></g><g><path d="m186.712 55.226c-.07 0-.14-.003-.211-.011-1.099-.115-1.896-1.1-1.781-2.198.422-4.016 3.617-7.42 7.599-8.094 3.984-.673 8.12 1.49 9.839 5.143.47 1 .041 2.191-.958 2.662-1 .471-2.191.041-2.662-.958-.938-1.995-3.375-3.266-5.551-2.902-2.174.368-4.057 2.374-4.287 4.566-.108 1.028-.977 1.792-1.988 1.792z" fill="#4c5600"/></g><g><path d="m265.898 56.645c-.936 0-1.771-.66-1.96-1.612-.539-2.718-3.231-4.959-6.002-4.996-.023-.001-.046-.001-.069-.001-2.747 0-5.457 2.155-6.063 4.836-.243 1.078-1.316 1.755-2.392 1.511-1.078-.243-1.754-1.314-1.511-2.392 1.021-4.522 5.466-8.049 10.088-7.956 4.636.061 8.973 3.672 9.874 8.219.215 1.084-.49 2.136-1.574 2.351-.132.028-.262.04-.391.04z" fill="#4c5600"/></g><g opacity=".32"><path d="m112.968 128.16c-2.724-9.08 58.977-13.501 60.398-4.974s-58.266 12.08-60.398 4.974z" fill="#fff"/></g><g opacity=".32"><path d="m226.664 187.195s-41.564 5.32-56.31 4.792c0 0-32.22 116.225-14.456 163.832 17.764 47.608 66.379 74.092 123.935 78.355s136.904 8.843 180.149-9.366c0 0-77.387 10.622-144.911 1.517-68.364-9.218-131.752-33.068-145.252-78.544-13.501-45.476 7.106-132.875 12.79-140.691 5.685-7.816 44.055-19.895 44.055-19.895z" fill="#233338"/></g><g><path d="m197.265 407.839-.682-3.942c.413-.072 41.493-7.483 59.507-35.004l3.348 2.191c-18.979 28.993-60.419 36.452-62.173 36.755z" fill="#777c0d"/></g><g><path d="m246.047 428.203-2.567-3.069c.28-.234 28.042-23.64 30.503-40.869l3.961.566c-2.678 18.744-30.705 42.375-31.897 43.372z" fill="#777c0d"/></g><g><path d="m288.168 434.811-3.609-1.726c.112-.235 11.244-23.636 11.244-33.977h4.001c0 11.244-11.16 34.709-11.636 35.703z" fill="#777c0d"/></g><g><path d="m318.805 436.457-3.522-1.897c6.866-12.753 4.499-26.114 4.474-26.247l3.935-.729c.11.601 2.64 14.893-4.887 28.873z" fill="#777c0d"/></g><g><path d="m347.122 439.131-3.318-2.235 1.659 1.117-1.662-1.114c.064-.096 6.354-9.705 3.048-20.569l3.828-1.165c3.873 12.724-3.249 23.512-3.555 23.966z" fill="#777c0d"/></g><g><path d="m374.699 439.957-2.991-2.658c2.54-2.858 1.703-12.246.579-17.492l3.912-.838c.341 1.592 3.197 15.703-1.5 20.988z" fill="#777c0d"/></g><g><path d="m398.319 437.057-3.431-2.058c2.223-3.704 1.333-10.71.802-13.096l3.905-.868c.093.413 2.214 10.204-1.276 16.022z" fill="#777c0d"/></g><g><path d="m424.642 435.25-3.038-2.604c1.829-2.133-.005-7.14-.792-8.726l3.58-1.787c.434.867 4.123 8.599.25 13.117z" fill="#777c0d"/></g><g><path d="m443.471 431.991-3.256-2.326c1.911-2.675.307-6.892.291-6.934l3.715-1.486c.101.253 2.45 6.267-.75 10.746z" fill="#777c0d"/></g><g><path d="m362.032 440.325c-5.551 0-11.119-.1-16.645-.313-62.175-2.391-139.553-5.367-179.286-59.122-13.823-18.702-19.437-47.934-16.687-86.885 2.184-30.93 9.024-59.106 11.945-71.138.488-2.01.857-3.529 1.062-4.484 1.854-8.65 4.396-19.767 5.518-24.644-9.645.065-44.468-.016-68.289-4.152-26.243-4.557-30.133-16.468-32.707-24.351-.357-1.091-.693-2.122-1.057-3.042-2.196-5.551-4.954-28.874.591-40.127 1.578-3.202 3.731-5.212 6.399-5.974 3.889-1.111 7.281-.792 10.084.949 1.257.781 2.256 1.771 3.047 2.807.685-1.935 1.766-3.961 3.472-5.556 2.323-2.172 5.327-3.148 8.926-2.905 7.105.481 11.033 7.605 12.52 11.032 33.952-9.293 49.167-6.402 57.405-4.838 1.971.375 3.527.67 4.723.67 1.557 0 2.677-.374 3.329-1.112.95-1.077.793-2.728.791-2.744-.042-.337.002-.679.129-.994.537-1.337 13.316-32.788 26.423-37.022 3.561-1.152 9.554 1.675 17.632 5.793 2.679 1.366 6.014 3.066 6.897 3.15.852-.045 3.87-1.935 6.294-3.454 5.999-3.758 14.2-8.907 21.752-8.637 20.49.729 32.383 23.355 33.968 38.418 1.52 14.447.805 86.453.774 89.511-.018.366-1.402 28.701 5.071 63.367 5.947 31.85 19.938 75.732 52.813 103.911 30.726 26.337 64.37 34.233 86.633 39.458 16.834 3.951 27.956 6.561 28.568 14.847.055.749-.119 1.892-1.266 3.079-6.874 7.12-53.194 14.502-100.829 14.502zm-191.572-250.613c.603 0 1.175.272 1.555.742.387.479.532 1.11.393 1.71-.036.156-3.648 15.733-6.075 27.056-.21.978-.587 2.533-1.086 4.59-22.533 92.822-10.223 135.36 4.072 154.7 38.59 52.21 114.903 55.144 176.221 57.502 24.633.946 52.689-.371 76.979-3.617 25.428-3.399 36.47-7.591 37.605-9.506-.574-5.256-11.042-7.712-25.479-11.101-22.641-5.313-56.857-13.344-88.323-40.315-33.783-28.958-48.099-73.794-54.16-106.307-6.546-35.117-5.134-63.848-5.118-64.135.005-.662.741-74.747-.756-88.967-1.439-13.669-12.01-34.194-30.131-34.839-6.306-.228-13.926 4.546-19.486 8.029-4.262 2.671-6.573 4.064-8.454 4.064-1.574 0-3.927-1.164-8.678-3.585-4.307-2.195-12.32-6.285-14.585-5.551-9.265 2.993-20.127 25.367-23.772 34.292.029 1.087-.133 3.42-1.801 5.309-1.444 1.636-3.573 2.465-6.328 2.465-1.573 0-3.292-.327-5.47-.74-8.056-1.53-23.05-4.379-57.326 5.244-1.036.286-2.115-.29-2.445-1.313-.03-.093-3.207-9.626-9.677-10.063-2.478-.171-4.412.429-5.913 1.826-3.333 3.101-3.397 9.095-3.398 9.155-.004 1.033-.795 1.895-1.824 1.986-1.034.096-1.959-.613-2.145-1.63-.007-.036-.861-4.339-4.027-6.288-1.8-1.109-4.105-1.272-6.854-.488-1.536.439-2.851 1.749-3.909 3.895-4.885 9.912-2.367 32.066-.46 36.887.409 1.034.764 2.121 1.139 3.271 2.548 7.8 5.717 17.506 29.589 21.651 27.368 4.753 69.664 4.074 70.09 4.068.013.003.025.003.037.003z" fill="#4c5600"/></g><g><path d="m270.925 372.117s4.836 68.139 4.286 71.141-7.528 15.689-5.413 16.852c2.114 1.163 12.909-6.945 15.636-4.894 2.728 2.051 8.996 10.181 12.136 9.98s3.7-11.735 3.7-11.735 13.987 4.113 15.424.497c1.438-3.616-14.113-11.894-14.113-11.894l-1.409-68.867s-5.091-6.599-15.421-6.599c-9.091 0-14.826 5.519-14.826 5.519z" fill="#768901"/></g><g><path d="m297.445 467.2c-2.77 0-5.757-2.874-9.944-7.212-1.246-1.291-2.427-2.514-3.182-3.107-1.152-.191-5.011 1.726-7.101 2.764-3.928 1.952-6.521 3.243-8.383 2.217-2.843-1.563-1.179-5.735 2.264-13.589.935-2.133 1.995-4.551 2.146-5.375.313-2.758-2.437-42.859-4.362-69.129-.081-1.102.747-2.061 1.849-2.141 1.089-.089 2.06.747 2.141 1.849.819 11.169 4.875 67.045 4.308 70.142-.224 1.22-1.064 3.174-2.417 6.26-.962 2.194-2.574 5.872-3.152 7.974 1.127-.449 2.674-1.218 3.827-1.79 4.67-2.319 8.702-4.323 11.199-2.445 1.004.754 2.273 2.069 3.743 3.593 1.782 1.845 5.404 5.598 6.887 5.961.864-1.017 1.798-5.522 2.006-9.807.03-.613.339-1.178.839-1.533s1.135-.462 1.724-.289c5.451 1.601 11.308 2.344 12.858 1.677-.867-1.784-6.707-6.009-13.051-9.388-.646-.344-1.053-1.012-1.06-1.744l-.716-66.376c-.012-1.105.874-2.01 1.979-2.022 1.061-.03 2.01.874 2.022 1.979l.703 65.196c7.542 4.115 15.643 9.666 13.984 13.835-1.606 4.039-9.557 2.857-15.457 1.342-.497 5.419-1.874 10.927-5.399 11.153-.087.003-.171.005-.255.005z" fill="#4c5600"/></g><g><path d="m170.9 96.22c.044-15.25 10.879-27.063 26.005-27.019 15.127.044 26.299 12.846 26.255 28.096-.045 15.25-10.935 26.052-26.061 26.008-15.128-.044-26.244-11.835-26.199-27.085z" fill="#768901"/></g><g><path d="m197.098 125.306c-.002 0-.004 0-.006 0-16.121-.047-28.241-12.554-28.193-29.091.023-7.952 2.827-15.273 7.896-20.616 5.159-5.438 12.258-8.417 20.115-8.397 13.557.039 25.804 11.043 27.303 24.528.122 1.098-.669 2.087-1.767 2.209-1.096.121-2.087-.669-2.209-1.768-1.281-11.528-11.75-20.935-23.338-20.968-.026 0-.052 0-.077 0-6.669 0-12.748 2.538-17.124 7.15-4.363 4.6-6.778 10.948-6.798 17.874-.041 14.256 10.364 25.038 24.204 25.078 1.105.003 1.998.902 1.995 2.006-.004 1.103-.899 1.995-2.001 1.995z" fill="#4c5600"/></g><g><ellipse cx="197.372" cy="97.545" fill="#fff" rx="20.349" ry="20.349" transform="matrix(.227 -.974 .974 .227 57.539 267.597)"/></g><g><ellipse cx="197.627" cy="106.484" fill="#cc9211" rx="11.573" ry="11.573" transform="matrix(.099 -.995 .995 .099 72.022 292.545)"/></g><g><ellipse cx="197.627" cy="106.484" fill="#233338" rx="7.046" ry="7.046" transform="matrix(.132 -.991 .991 .132 65.911 288.27)"/></g><g><path d="m199.856 102.033c0-1.52 1.309-2.752 2.924-2.752s2.924 1.232 2.924 2.752-1.309 2.752-2.924 2.752-2.924-1.232-2.924-2.752z" fill="#fff"/></g><g><path d="m257.945 69.898c15.169-1.169 27.819 9.167 29.033 24.917s-10.589 28.4-25.758 29.57c-15.17 1.169-26.818-9.306-28.032-25.056-1.214-15.751 9.587-28.262 24.757-29.431z" fill="#768901"/></g><g><path d="m261.217 126.385c-1.035 0-1.912-.798-1.993-1.847-.085-1.102.739-2.063 1.841-2.148 14.511-1.118 25.017-13.163 23.918-27.421-1.117-14.487-12.415-24.186-26.885-23.077-10.291.793-19.766 8.986-22.04 19.058-.242 1.078-1.31 1.757-2.392 1.511-1.078-.243-1.754-1.314-1.511-2.392 2.688-11.906 13.469-21.228 25.635-22.166 16.502-1.278 29.907 10.232 31.182 26.758 1.271 16.495-10.852 30.427-27.6 31.718-.051.004-.103.006-.155.006z" fill="#4c5600"/></g><g><ellipse cx="258.947" cy="97.545" fill="#fff" rx="20.349" ry="20.349" transform="matrix(.3 -.954 .954 .3 88.159 315.261)"/></g><g><ellipse cx="255.458" cy="107.11" fill="#cc9211" rx="11.573" ry="11.573" transform="matrix(.895 -.445 .445 .895 -20.969 124.985)"/></g><g><path d="m262.504 107.11c0 3.891-3.154 7.046-7.046 7.046-3.891 0-7.046-3.154-7.046-7.046 0-3.891 3.155-7.046 7.046-7.046 3.891.001 7.046 3.155 7.046 7.046z" fill="#233338"/></g><g><ellipse cx="260.611" cy="102.659" fill="#fff" rx="2.924" ry="2.752"/></g><g><path d="m120.44 158.815s3.287 12.589 5.742 13.589c2.456.999 5.57-11.722 5.57-11.722z" fill="#fff"/></g><g><path d="m144.137 161.769s3.627 10.599 5.43 11.029 5.074-11.011 5.074-11.011z" fill="#fff"/></g><g><path d="m166.712 159.511s3.627 10.599 5.43 11.029 5.074-11.011 5.074-11.011z" fill="#fff"/></g><g><path d="m131.494 177.252c-47.823.001-61.682-8.467-62.306-8.866-.931-.595-1.204-1.832-.609-2.763s1.832-1.203 2.763-.609c.152.095 17.09 10.131 76.991 7.913 43.916-1.627 61.39-11.051 68.291-18.858-9.539 4.966-29.504 9.397-70.354 9.397-.221 0-.436 0-.658 0-60.586-.07-76.427-7.397-80.476-11.759-1.504-1.621-1.583-2.936-1.547-3.427.081-1.101 1.029-1.941 2.141-1.849 1.008.074 1.786.882 1.85 1.862.283.678 5.902 11.088 78.037 11.172h.658c53.867 0 68.97-7.696 73.178-12.297 1.248-1.365 1.379-2.329 1.388-2.613-.004-.081-.008-.124-.009-.128-.146-1.064.576-2.054 1.634-2.241 1.06-.186 2.075.496 2.303 1.546.03.138.086.467.071.946.012 1.792-.446 6.377-4.773 11.525-7.151 8.509-25.375 19.012-71.586 20.723-6.088.224-11.744.326-16.987.326zm-63.916-28.687c0 .002-.001.004-.001.006.001-.002.001-.004.001-.006zm.001-.005v.004c-.001-.001 0-.003 0-.004z" fill="#4c5600"/></g><g><g><path d="m264.934 65.525c-14.419-.2-26.788 5.643-31.486 18.805-1.845-1.223-4.271-2.075-7.437-2.119-3.532-.049-6.221.928-8.235 2.248-4.231-13.465-16.517-19.816-31.062-20.018-18.236-.253-33.234 11.252-33.493 29.95s14.366 34.115 32.601 34.368c18.236.253 33.282-14.753 33.541-33.451.014-1.015-.024-2.019-.096-3.013 1.158-1.347 3.251-2.952 6.643-2.905 3.083.043 4.815 1.459 5.742 2.696-.124 1.114-.197 2.245-.213 3.389-.259 18.698 14.366 34.115 32.601 34.368 18.236.253 33.282-14.753 33.541-33.451.262-18.697-14.412-30.614-32.647-30.867zm-79.011 56.055c-14.375-.199-25.904-12.353-25.699-27.092.204-14.739 12.017-23.067 26.392-22.868s25.952 8.852 25.748 23.591c-.205 14.739-12.066 26.569-26.441 26.369zm78.219 1.085c-14.375-.199-25.904-12.353-25.699-27.092.204-14.739 12.017-23.067 26.392-22.868s25.952 8.852 25.748 23.591c-.205 14.739-12.066 26.568-26.441 26.369z" fill="#f47676"/></g><g><g><path d="m264.496 131.847c-.161 0-.32-.001-.482-.003-19.339-.269-34.849-16.596-34.574-36.397.012-.892.059-1.798.138-2.703-.904-.878-2.142-1.333-3.693-1.354-1.847-.06-3.353.53-4.566 1.654.041.797.056 1.553.045 2.292-.133 9.568-3.903 18.525-10.617 25.221-6.727 6.71-15.567 10.319-24.952 10.203-19.338-.269-34.848-16.596-34.574-36.397.132-9.548 3.834-17.7 10.706-23.574 6.451-5.516 15.234-8.474 24.815-8.349 15.762.219 27.331 7.16 32.134 19.15 2.157-.952 4.56-1.395 7.162-1.38 2.343.033 4.481.467 6.384 1.296 5.179-11.678 16.89-18.178 32.539-17.981 20.321.282 34.882 14.116 34.622 32.895-.271 19.635-15.967 35.426-35.087 35.427zm-38.734-44.459c.059 0 .118.001.178.001 3.922.054 6.143 1.932 7.315 3.498.305.407.443.915.387 1.42-.119 1.068-.187 2.143-.201 3.195-.244 17.595 13.496 32.103 30.629 32.34.141.002.284.003.426.003 16.942.001 30.846-14.032 31.088-31.481.232-16.726-12.383-28.586-30.677-28.839-14.764-.227-25.536 6.165-29.574 17.476-.207.579-.669 1.032-1.252 1.226-.582.195-1.223.11-1.737-.231-1.737-1.151-3.876-1.752-6.36-1.786-2.717-.046-5.108.609-7.111 1.92-.525.344-1.18.421-1.769.211-.591-.211-1.048-.686-1.236-1.284-3.653-11.625-14.289-18.411-29.181-18.617-8.571-.141-16.447 2.505-22.16 7.388-5.971 5.105-9.189 12.224-9.305 20.589-.244 17.595 13.496 32.103 30.628 32.34 8.266.108 16.115-3.093 22.072-9.035 5.97-5.955 9.324-13.925 9.441-22.444.013-.894-.017-1.823-.09-2.841-.038-.527.134-1.047.478-1.448 1.419-1.649 3.955-3.601 8.011-3.601zm38.741 37.279c-.129 0-.259-.001-.389-.002-15.477-.215-27.891-13.278-27.672-29.12.106-7.624 3.086-14.041 8.617-18.558 5.092-4.158 12.145-6.372 19.803-6.283 7.678.106 14.646 2.532 19.621 6.83 5.404 4.669 8.205 11.166 8.099 18.79-.106 7.653-3.123 14.819-8.494 20.175-5.291 5.277-12.233 8.168-19.585 8.168zm-.167-49.966c-6.552 0-12.484 1.904-16.746 5.385-4.587 3.746-7.058 9.11-7.147 15.515-.189 13.636 10.455 24.88 23.727 25.064 6.376.103 12.479-2.397 17.094-6.999 4.628-4.615 7.227-10.794 7.318-17.398.089-6.404-2.232-11.835-6.714-15.706-4.264-3.683-10.323-5.763-17.061-5.856-.157-.004-.315-.005-.471-.005zm-78.052 48.882c-.13 0-.259-.001-.389-.002-7.496-.104-14.507-3.2-19.741-8.717-5.22-5.504-8.037-12.75-7.931-20.403.106-7.624 3.086-14.041 8.617-18.558 5.093-4.158 12.149-6.376 19.803-6.283 7.678.106 14.646 2.532 19.621 6.83 5.404 4.668 8.205 11.166 8.099 18.789-.106 7.653-3.123 14.819-8.494 20.175-5.291 5.277-12.233 8.169-19.585 8.169zm-.167-49.966c-6.552 0-12.484 1.904-16.746 5.385-4.587 3.745-7.058 9.11-7.147 15.514-.092 6.604 2.335 12.852 6.833 17.594 4.485 4.729 10.485 7.381 16.893 7.47 6.393.112 12.48-2.397 17.094-6.999 4.628-4.615 7.227-10.794 7.318-17.398.089-6.404-2.232-11.835-6.714-15.706-4.264-3.684-10.323-5.763-17.061-5.856-.156-.003-.314-.004-.47-.004z" fill="#c40050"/></g></g></g><g><g><g><g><g><path d="m250.946 220.805s-34.985-1.537-58.13 8.025c-23.146 9.562-23.323 17.308-24.33 25.051s34.996.785 34.996.785z" fill="#fcfcfc"/></g><g><path d="m253.374 218.931-18.18 88.497s-27.339 16.438-65.692 17.012l12.321-78.219z" fill="#7cc1eb"/></g><g><path d="m200.652 290.778c17.974 6.846 35.643-18.714 43.343-26.188l-8.8 42.838s-20.038 14.757-55.187 17.857c-.067-.055-10.411-.962-10.479-1.017l12.199-77.96c0 .001-2.125 36.453 18.924 44.47z" fill="#66afd3"/></g><g><path d="m98.903 214.462s17.58 1.45 41.084 10.095c26.361 9.696 27.042 21.485 27.434 29.283.392 7.799-34.948-1.981-34.948-1.981z" fill="#fcfcfc"/></g><g><path d="m95.541 212.97 11.134 89.657s15.973 17.869 54.16 21.47l-5.847-78.992c-21.514-14.251-38.158-23.334-59.447-32.135z" fill="#7cc1eb"/></g><g><path d="m154.988 245.105s4.638 6.456 13.595 6.811c8.957.354 13.24-5.694 13.24-5.694l-1.473 79.345s-10.156 9.356-19.515-1.469z" fill="#66afd3"/></g><g><path d="m132.442 288.08c-18.458 5.405-24.07-20.794-31.156-28.853l5.389 43.399s15.83 17.793 53.932 21.447c.071-.049.144-.1.215-.15l-5.834-78.82c0 .002-.93 36.647-22.546 42.977z" fill="#66afd3"/></g></g><g><path d="m157.012 247.667s15.107 8.055 24.303 1.907l-.92 77.448s-11.636 5.036-17.316-.288z" fill="#7cc1eb"/></g></g><g><path d="m171.728 332.021c-.269 0-.544-.005-.826-.017-6.883-.272-10.108-4.138-11.331-6.159-35.024-2.528-53.546-21.024-54.324-21.818-.307-.313-.503-.719-.557-1.154l-11.134-89.657c-.084-.672.179-1.341.697-1.777.519-.436 1.223-.58 1.87-.384l10.938 3.321c.313.095.588.261.81.477 1.427.413 6.167 1.505 21.87 4.161 26.548 4.49 35.914 18.486 39.161 26.644 3.924-7.48 14.153-19.861 39.635-23.511 24.621-3.526 35.968-3.302 38.169-3.21l6.068-1.914c.675-.214 1.414-.053 1.941.422s.762 1.194.62 1.888l-18.18 88.497c-.117.571-.478 1.063-.987 1.346-19.869 11.049-48.671 17.039-54.464 18.168-1.026 1.724-3.699 4.677-9.976 4.677zm-63.156-30.35c3.081 2.843 21.227 18.334 52.373 20.257.781.048 1.463.548 1.744 1.279.069.168 1.931 4.546 8.371 4.8 6.137.245 7.34-2.924 7.387-3.059.239-.674.837-1.22 1.541-1.349.324-.06 32.287-6.017 53.432-17.478l17.309-84.257-3.165.998c-.237.075-.489.104-.733.088-.107-.005-11.164-.646-37.729 3.159-33.578 4.809-38.375 25.349-38.562 26.22-.206.959-1.075 1.627-2.058 1.581-.979-.049-1.779-.798-1.888-1.772-.112-.945-3.161-23.366-37.522-29.178-9.079-1.536-15.638-2.742-19.494-3.584-2.222-.485-3.713-.811-4.522-1.426l-7.151-2.171z" fill="#413f66"/></g><g><path d="m169.68 253.938c-.382 0-.773-.008-1.176-.023-9.971-.395-13.215-5.461-14.135-7.56l-48.893-28.333 2.006-3.462 49.511 28.691c.469.272.807.722.938 1.248.051.175 1.554 5.055 10.731 5.418 9.229.373 11.216-4.226 11.297-4.421.208-.506.63-.941 1.14-1.139l65.14-25.267 1.447 3.73-64.435 24.994c-1.123 1.9-4.626 6.123-13.571 6.124z" fill="#413f66"/></g></g><g><path d="m141.407 283.893h79.358v4.001h-79.358z" fill="#413f66" transform="matrix(.019 -1 1 .019 -108.118 461.643)"/></g><g><path d="m156.406 244.908h4.001v79.091h-4.001z" fill="#413f66" transform="matrix(.998 -.061 .061 .998 -17.085 10.211)"/></g></g><g><g><path d="m273.923 235.363c-10.883.028-17.649 12.814-36.708 23.326-14.225 7.845-31.89 5.71-33.044 8.81s10.326 4.803 10.71 8.475-9.227 3.625-8.843 7.297c.354 3.386 11.822 3.517 12.494 6.414.673 2.897-9.173 6.214-6.962 9.683 1.25 1.963 19.796-1.445 38.194-10.814 26.382-13.434 31.621-19.671 35.716-26.712 5.449-9.371 3.943-26.519-11.557-26.479z" fill="#768901"/></g><g><path d="m214.022 301.889c-3.219 0-3.832-.963-4.14-1.447-2.207-3.464 1.546-6.327 4.03-8.221.764-.583 1.952-1.489 2.457-2.08-.873-.502-2.969-1.071-4.297-1.433-3.783-1.029-7.695-2.093-8.024-5.229-.35-3.35 3.135-4.719 5.68-5.719 1.022-.401 2.925-1.149 3.18-1.643-.263-.7-3.269-2.079-4.714-2.742-3.341-1.532-7.127-3.269-5.897-6.574.898-2.414 4.133-2.803 10.006-3.51 6.708-.807 15.895-1.913 23.947-6.354 8.167-4.504 13.926-9.348 19.008-13.622 6.6-5.551 11.813-9.935 18.661-9.953h.005c1.102 0 1.998.892 2 1.995.003 1.105-.89 2.003-1.995 2.006-5.396.014-9.885 3.789-16.097 9.014-4.964 4.174-11.141 9.37-19.651 14.063-8.734 4.817-18.764 6.024-25.401 6.822-2.122.255-4.638.559-6.027.918.849.521 2.195 1.138 3.109 1.558 3.294 1.511 6.7 3.073 7.01 6.026.351 3.349-3.135 4.719-5.68 5.719-.95.373-2.662 1.046-3.102 1.535.722.656 3.498 1.411 5.033 1.829 3.632.988 6.768 1.841 7.359 4.384.594 2.558-1.813 4.395-4.142 6.17-.858.654-2.321 1.771-2.876 2.511 3.915.174 18.988-2.789 35.393-11.143 26.075-13.277 31.072-19.361 34.894-25.935.556-.955 1.781-1.278 2.735-.724.955.555 1.279 1.78.724 2.735-4.159 7.151-9.49 13.716-36.537 27.489-11.138 5.672-21.039 8.583-25.949 9.814-5.206 1.306-8.541 1.74-10.702 1.741z" fill="#4c5600"/></g></g><g><g><path d="m76.157 123.903c-7.562 0-5.505 13.492.014 13.492 5.032 0 5.388-13.492-.014-13.492z" fill="#768901"/></g><g><path d="m76.171 139.395c-4.288 0-6.943-4.947-6.943-9.532 0-2.082.53-3.918 1.535-5.31 1.251-1.734 3.117-2.651 5.394-2.651 1.99 0 3.668 1.106 4.726 3.114.77 1.463 1.195 3.404 1.195 5.466 0 5.248-2.429 8.913-5.907 8.913zm-.013-13.492c-.979 0-1.662.315-2.15.991-.502.696-.778 1.75-.778 2.969 0 2.791 1.457 5.531 2.942 5.531.882 0 1.906-2.145 1.906-4.911 0-1.404-.268-2.716-.734-3.601-.515-.979-1.003-.979-1.186-.979z" fill="#4c5600"/></g></g><g><path d="m170.46 193.713c-1.105 0-2-.896-2-2.001s.896-2 2-2c.343 0 34.628-.076 60.01-6.422 1.072-.267 2.158.384 2.426 1.456s-.384 2.158-1.456 2.426c-25.866 6.466-60.632 6.541-60.98 6.541z" fill="#4c5600"/></g></g></svg>