<svg id="Слой_1" height="512" viewBox="0 0 512 512" width="512" xmlns="http://www.w3.org/2000/svg"><g><g><g><g><path d="m405.427 277.458c-.897-2.447-2.35-4.795-4.564-6.171-2.236-1.39-5.045-1.643-7.632-1.154-2.588.489-4.994 1.663-7.281 2.97-7.404 4.231-13.845 9.929-20.228 15.584l4.149 14.452c6.405-.278 12.869-.566 19.066-2.21 5.412-1.436 10.81-4.009 14.684-8.146 1.59-1.698 2.372-4.542 2.725-6.807.443-2.852.071-5.817-.919-8.518z" fill="#96d8ff"/><path d="m369.87 304.841c-.757 0-1.427-.501-1.636-1.233l-4.149-14.452c-.181-.63.017-1.31.507-1.745 6.356-5.631 12.93-11.453 20.513-15.787 2.054-1.174 4.798-2.595 7.809-3.165 3.271-.622 6.418-.131 8.846 1.38 2.277 1.415 4.096 3.846 5.265 7.031 0 .001 0 .001.002.001 1.129 3.083 1.475 6.321 1.001 9.365-.369 2.368-1.217 5.629-3.163 7.708-3.684 3.933-9.04 6.916-15.491 8.629-6.401 1.7-13.025 1.987-19.431 2.266-.025.001-.048.002-.073.002zm-2.215-15.592 3.482 12.129c5.802-.259 11.751-.606 17.362-2.095 4.069-1.08 9.779-3.286 13.878-7.665 1.058-1.128 1.868-3.225 2.285-5.905.386-2.475.098-5.127-.833-7.669-.632-1.72-1.814-4.036-3.866-5.312-1.703-1.058-3.978-1.388-6.416-.927-2.498.473-4.814 1.669-6.752 2.776-6.965 3.981-13.163 9.376-19.14 14.668z" fill="#57ade0"/></g><g><path d="m364.599 291.923c.381-7.437 5.641-18.755 11.934-24.164.658-.566 1.366-1.111 2.198-1.359s1.819-.143 2.437.466c.913.899.683 2.4.387 3.646-.866 3.645-1.732 7.29-2.598 10.935z" fill="#96d8ff"/><path d="m364.602 293.627c-.03 0-.058-.001-.088-.003-.94-.047-1.661-.848-1.615-1.787.422-8.281 6.158-19.898 12.526-25.369.793-.684 1.685-1.362 2.82-1.7 1.527-.454 3.103-.115 4.119.885 1.7 1.673 1.103 4.182.848 5.253l-2.599 10.936c-.218.916-1.136 1.478-2.05 1.263-.915-.218-1.48-1.136-1.262-2.051l2.599-10.935c.366-1.545.175-1.94.075-2.039-.09-.087-.397-.152-.758-.047-.521.156-1.064.581-1.572 1.019-5.668 4.87-10.969 15.599-11.343 22.96-.047.908-.8 1.615-1.7 1.615z" fill="#57ade0"/></g></g><g><path d="m360.196 285.731c-3.112.761-6.826 1.586-11.009 2.389-19.357 3.663-52.443 4.93-73.875-.069-12.207-2.847-30.921 43.043 2.921 44.599 35.386 1.627 62.391-9.559 79.483-18.752 4.934-2.659 9.2-5.221 12.607-7.429-3.281-6.965-6.255-14.081-10.127-20.738z" fill="#fff"/><path d="m285.316 334.517c-2.376 0-4.763-.055-7.163-.166-11.905-.547-16.914-6.336-19.021-11.096-4.377-9.893-.303-23.883 6.165-31.694 3.401-4.104 7.086-5.943 10.402-5.169 20.595 4.803 53.376 3.799 73.171.054 3.8-.73 7.477-1.527 10.921-2.371.732-.181 1.497.145 1.876.797 2.934 5.042 5.382 10.395 7.75 15.572.808 1.769 1.618 3.539 2.446 5.298.364.771.101 1.692-.614 2.155-3.846 2.492-8.247 5.085-12.725 7.499-23.868 12.838-47.89 19.121-73.208 19.121zm-11.12-44.889c-1.839 0-4.079 1.454-6.276 4.107-5.681 6.86-9.466 19.571-5.673 28.143 2.498 5.644 7.903 8.696 16.063 9.071 27.352 1.26 53.05-4.809 78.599-18.55 3.92-2.113 7.778-4.364 11.239-6.558-.615-1.323-1.222-2.651-1.829-3.978-2.159-4.723-4.387-9.595-6.966-14.176-3.133.745-6.439 1.453-9.845 2.106-20.147 3.812-53.547 4.822-74.583-.083-.235-.055-.478-.082-.729-.082z" fill="#57ade0"/></g><g><g><path d="m373.208 304.548c-3.731 2.565-9.049 5.877-15.493 9.35-.641-9.115-3.585-18.075-8.529-25.779 6.618-1.27 12.174-2.609 15.794-3.634 3.916 6.132 6.706 12.962 8.228 20.063z" fill="#8242b8"/><path d="m357.715 315.602c-.283 0-.565-.071-.822-.211-.506-.279-.836-.796-.876-1.373-.625-8.89-3.482-17.527-8.265-24.978-.304-.476-.354-1.072-.131-1.591s.689-.894 1.244-1c5.791-1.111 11.495-2.423 15.651-3.6.715-.207 1.492.087 1.899.722 4.034 6.315 6.88 13.253 8.458 20.622.145.674-.131 1.37-.7 1.76-4.389 3.017-9.946 6.372-15.649 9.446-.253.135-.531.203-.809.203zm-5.802-26.283c3.875 6.675 6.353 14.138 7.256 21.843 4.387-2.44 8.596-4.997 12.125-7.371-1.44-6.146-3.818-11.964-7.086-17.324-3.483.942-7.806 1.944-12.295 2.852z" fill="#67239e"/></g><g><path d="m365.882 310.94c-.79 0-1.498-.552-1.666-1.356-1.621-7.791-4.427-15.31-8.338-22.346-.457-.822-.161-1.858.66-2.316.827-.457 1.861-.161 2.316.661 4.078 7.336 7.005 15.178 8.696 23.307.193.921-.399 1.822-1.319 2.014-.117.025-.234.036-.349.036z" fill="#67239e"/></g></g></g><g><g><g><path d="m93.082 168.817c2.233-1.344 4.837-2.262 7.424-1.947 2.614.319 4.961 1.882 6.67 3.885 1.71 2.003 2.849 4.427 3.811 6.878 3.116 7.938 4.563 16.415 5.991 24.822l-12.292 8.659c-4.816-4.232-9.672-8.508-13.469-13.674-3.316-4.511-5.909-9.901-6.334-15.552-.174-2.319.999-5.026 2.144-7.012 1.441-2.498 3.591-4.575 6.055-6.059z" fill="#96d8ff"/><path d="m104.685 212.818c-.402 0-.805-.143-1.124-.424-4.818-4.235-9.798-8.614-13.716-13.944-3.953-5.378-6.256-11.06-6.66-16.432-.213-2.845 1.171-5.916 2.368-7.992 1.538-2.668 3.838-4.974 6.652-6.667 2.904-1.75 5.845-2.499 8.508-2.178 2.839.346 5.594 1.933 7.76 4.469 1.989 2.331 3.236 5.16 4.099 7.362 3.193 8.13 4.663 16.786 6.087 25.159.11.647-.163 1.3-.699 1.677l-12.293 8.659c-.297.208-.639.311-.982.311zm-5.212-44.307c-2.109 0-4.126.93-5.513 1.764v.001c-2.32 1.396-4.207 3.281-5.458 5.451-1.355 2.348-2.037 4.491-1.922 6.035.451 5.981 3.516 11.279 6.008 14.669 3.436 4.673 7.853 8.675 12.213 12.517l10.317-7.267c-1.34-7.871-2.786-15.959-5.717-23.427-.815-2.077-1.869-4.461-3.521-6.394-1.61-1.886-3.59-3.058-5.581-3.3-.275-.033-.551-.049-.826-.049zm-6.391.306h.017z" fill="#57ade0"/></g><g><path d="m115.823 205.681c4.366-6.033 7.362-18.148 5.85-26.308-.158-.854-.368-1.722-.86-2.437s-1.327-1.251-2.191-1.165c-1.275.128-2.036 1.441-2.587 2.598-1.61 3.383-3.22 6.766-4.831 10.149z" fill="#96d8ff"/><path d="m115.822 207.384c-.346 0-.695-.105-.996-.324-.762-.551-.933-1.616-.382-2.378 4.321-5.97 6.917-17.652 5.555-24.999-.121-.659-.278-1.33-.587-1.782-.208-.298-.486-.466-.619-.435-.173.017-.562.253-1.222 1.636l-4.828 10.148c-.406.849-1.417 1.212-2.27.806-.85-.404-1.211-1.42-.807-2.269l4.829-10.149c.476-.995 1.586-3.322 3.956-3.561 1.413-.147 2.855.582 3.762 1.89.675.98.943 2.067 1.134 3.096 1.528 8.254-1.284 20.901-6.143 27.617-.334.459-.854.704-1.382.704z" fill="#57ade0"/></g></g><g><path d="m123.136 203.617c1.948 2.544 4.324 5.515 7.08 8.763 12.785 14.989 37.769 36.716 57.601 46.256 11.295 5.434 12.394 66.309-40.8 24.762-18.981-14.825-32.051-38.403-39.606-56.28-2.177-5.165-3.895-9.835-5.166-13.691 6.923-3.371 13.701-7.051 20.891-9.81z" fill="#fff"/><path d="m177.51 299.55c-8.357 0-18.922-4.953-31.541-14.811-20.853-16.286-34.092-42.677-40.127-56.959-1.979-4.693-3.782-9.472-5.215-13.82-.266-.809.107-1.691.873-2.064 1.746-.851 3.484-1.721 5.222-2.592 5.09-2.55 10.356-5.187 15.804-7.277.708-.268 1.503-.044 1.962.555 2.16 2.82 4.523 5.747 7.026 8.696 13.07 15.322 37.981 36.654 57.041 45.823 4.931 2.372 7.206 11.436 7.232 18.853.038 10.45-3.913 18.636-10.567 21.897-2.313 1.134-4.885 1.699-7.71 1.699zm-73.176-85.25c1.32 3.876 2.914 8.048 4.646 12.156 5.905 13.976 18.839 39.786 39.084 55.599 19.643 15.344 30.237 15.395 35.658 12.737 5.455-2.674 8.692-9.711 8.659-18.826-.03-8.195-2.776-14.58-5.303-15.795-19.465-9.365-44.856-31.092-58.159-46.687-2.243-2.643-4.375-5.267-6.353-7.815-4.884 1.954-9.675 4.355-14.32 6.681-1.302.653-2.605 1.305-3.912 1.95z" fill="#57ade0"/></g><g><g><path d="m101.202 210.121c1.299 4.337 3.366 10.252 6.209 16.997 6.213-6.7 14.124-11.835 22.805-14.738-4.361-5.138-7.85-9.664-10.027-12.732-6.895 2.322-13.35 5.894-18.987 10.473z" fill="#8242b8"/><path d="m107.411 228.821c-.098 0-.196-.008-.296-.026-.569-.101-1.049-.483-1.274-1.016-2.511-5.963-4.74-12.06-6.271-17.169-.198-.661.022-1.376.557-1.811 5.85-4.751 12.418-8.373 19.519-10.766.717-.236 1.498.017 1.932.629 2.496 3.519 6.118 8.117 9.937 12.616.366.431.494 1.015.341 1.56-.151.544-.564.978-1.099 1.157-8.395 2.807-16.036 7.745-22.096 14.282-.327.349-.781.544-1.25.544zm-4.242-18.089c1.264 4.065 2.939 8.695 4.826 13.342 5.535-5.437 12.143-9.698 19.346-12.47-2.93-3.522-5.671-7.015-7.791-9.93-5.908 2.129-11.407 5.17-16.381 9.058z" fill="#67239e"/></g><g><path d="m103.97 220.068c-.492 0-.981-.212-1.317-.622-.597-.727-.492-1.799.234-2.396 6.419-5.274 13.613-9.549 21.386-12.706.866-.353 1.863.064 2.218.936.354.871-.066 1.865-.938 2.218-7.452 3.028-14.352 7.127-20.505 12.182-.315.26-.699.388-1.078.388z" fill="#67239e"/></g></g></g><g><g><path d="m274.481 355.898c5.331 27.04 10.554 73.26 6.298 93.748 12.731 3.509 25.266 6.397 25.459 11.35.194 4.954-37.053 20.568-45.223 15.621-4.688-7.196-29.696-84.094-29.696-84.094z" fill="#fff"/><path d="m265.733 479.248c-2.318 0-4.249-.356-5.598-1.174-.22-.133-.406-.313-.545-.527-4.756-7.301-28.865-81.349-29.889-84.497-.213-.657-.008-1.379.517-1.826l43.16-36.624c.462-.388 1.096-.507 1.665-.308.57.199.991.685 1.109 1.278 5.112 25.926 10.392 71.168 6.595 92.849l2.092.572c12.78 3.467 22.876 6.208 23.101 11.94.05 1.287-.627 3.2-6.364 6.581-8.548 5.036-25.81 11.736-35.843 11.736zm-3.503-3.913c3.155 1.445 11.751 0 22.198-3.767 11.631-4.196 19.56-9.043 20.126-10.673-.145-3.067-11.49-6.145-20.606-8.619l-3.62-.988c-.867-.238-1.397-1.108-1.216-1.987 4.114-19.801-.75-63.55-5.752-90.217l-40.067 33.998c8.572 26.32 24.961 75.267 28.937 82.253z" fill="#57ade0"/></g><g><path d="m231.323 392.523s4.05 12.454 9.195 27.813c15.263-6.185 28.947-16.302 39.331-29.073-1.458-12.896-3.406-25.423-5.36-35.36z" fill="#8242b8"/><path d="m240.518 422.039c-.243 0-.486-.052-.712-.156-.427-.196-.753-.56-.903-1.006-5.089-15.19-9.158-27.702-9.2-27.827-.213-.657-.008-1.379.519-1.826l43.165-36.62c.461-.39 1.098-.505 1.663-.309.57.2.993.686 1.109 1.279 2.077 10.566 3.988 23.173 5.382 35.498.05.454-.083.911-.371 1.266-10.6 13.036-24.436 23.264-40.012 29.577-.206.083-.422.124-.64.124zm-7.221-28.958c1.044 3.205 4.296 13.136 8.255 24.98 14.144-6.048 26.728-15.458 36.523-27.32-1.251-10.914-2.902-22.008-4.71-31.653z" fill="#67239e"/></g><g><path d="m237.182 411.966c-.669 0-1.304-.397-1.575-1.054-.357-.87.056-1.866.926-2.223 16.051-6.602 30.006-17.347 40.353-31.07.567-.747 1.631-.901 2.386-.334.75.567.9 1.635.334 2.387-10.716 14.209-25.163 25.333-41.776 32.167-.212.086-.432.127-.648.127z" fill="#67239e"/></g><g><path d="m253.634 457.876c3.415 9.476 6.248 16.707 7.535 18.694 8.164 4.944 45.416-10.672 45.212-15.625-.183-4.942-12.717-7.83-25.45-11.351.006-.038.017-.059.023-.097-8.457 3.987-19.782 7.824-27.32 8.379z" fill="#96d8ff"/><path d="m265.896 479.203c-2.322 0-4.256-.358-5.609-1.177-.221-.133-.409-.316-.549-.532-1.266-1.956-3.858-8.363-7.705-19.041-.181-.501-.116-1.058.173-1.505.291-.446.773-.732 1.304-.77 7.593-.559 18.892-4.532 26.718-8.22.554-.263 1.204-.205 1.703.145l3.113.852c12.754 3.471 22.828 6.211 23.038 11.929.053 1.277-.617 3.181-6.311 6.547-8.549 5.052-25.824 11.772-35.875 11.772zm-3.511-3.914c3.166 1.444 11.757-.005 22.199-3.775 11.623-4.194 19.547-9.04 20.111-10.667-.135-3.053-11.451-6.133-20.546-8.608l-3.18-.87c-7.342 3.388-17.374 6.922-24.995 7.967 3.94 10.822 5.668 14.626 6.411 15.953z" fill="#57ade0"/></g></g><g><g><path d="m210.797 365.79c-15.998 22.441-46.017 57.973-63.835 68.946 6.189 11.665 12.697 22.761 9.228 26.303-3.468 3.542-40.394-12.817-42.407-22.154 2.013-8.349 40.751-79.329 40.751-79.329z" fill="#fff"/><path d="m154.359 463.23c-1.36 0-3.294-.298-6.103-1.109-11.733-3.391-34.364-14.651-36.137-22.876-.053-.251-.051-.51.01-.758 2.042-8.47 39.323-76.839 40.91-79.745.333-.605.988-.946 1.683-.877l56.263 6.233c.6.066 1.119.447 1.367.998.246.551.183 1.191-.168 1.684-15.338 21.515-44.605 56.418-62.978 68.545l1.019 1.908c6.256 11.678 11.197 20.901 7.181 25-.504.513-1.311.997-3.047.997zm-38.809-24.343c1.118 3.291 8.071 8.548 17.984 13.555 11.032 5.571 19.999 8.009 21.573 7.302 2.132-2.208-3.421-12.576-7.883-20.906l-1.766-3.304c-.421-.793-.153-1.778.612-2.248 17.224-10.607 45.689-44.18 61.641-66.125l-52.228-5.786c-13.25 24.304-37.583 69.826-39.933 77.512z" fill="#57ade0"/></g><g><path d="m154.537 359.559s-6.274 11.496-13.908 25.781c14.976 6.85 31.727 9.853 48.142 8.634 8.375-9.914 16.145-19.932 22.028-28.175z" fill="#8242b8"/><path d="m181.545 395.945c-14.319 0-28.572-3.087-41.624-9.057-.427-.195-.755-.559-.905-1.004-.151-.444-.11-.931.111-1.347 7.548-14.127 13.851-25.679 13.914-25.793.333-.605.985-.949 1.683-.877l56.261 6.24c.6.067 1.121.447 1.367.998.246.552.183 1.192-.168 1.685-6.246 8.751-14.101 18.797-22.115 28.284-.294.349-.718.566-1.174.599-2.446.182-4.899.272-7.35.272zm-38.551-11.415c14.107 6.132 29.59 8.809 44.938 7.796 7.084-8.411 14.016-17.23 19.78-25.155l-52.227-5.793c-1.611 2.96-6.6 12.141-12.491 23.152z" fill="#67239e"/></g><g><path d="m186.143 386.441c-14.107 0-28.158-3.015-41.181-8.89-.858-.386-1.239-1.395-.852-2.252.384-.855 1.389-1.242 2.252-.851 15.817 7.134 33.207 9.91 50.294 8.006.955-.096 1.778.572 1.881 1.505.103.935-.57 1.776-1.505 1.881-3.62.401-7.259.601-10.889.601z" fill="#67239e"/></g><g><path d="m122.341 420.65c-4.545 8.989-7.857 16.014-8.418 18.313 2.011 9.33 38.941 25.692 42.402 22.143 3.467-3.526-3.038-14.621-9.221-26.297.031-.021.055-.028.086-.049-8.704-3.411-19.27-9.01-24.849-14.11z" fill="#96d8ff"/><path d="m154.494 463.3c-1.352 0-3.271-.293-6.053-1.094-11.746-3.381-34.404-14.638-36.182-22.883-.055-.251-.051-.512.01-.762.55-2.258 3.427-8.543 8.553-18.679.241-.476.69-.811 1.214-.906.524-.097 1.063.058 1.455.417 5.619 5.137 16.264 10.623 24.322 13.783.569.223.971.732 1.063 1.33l1.527 2.865c6.228 11.649 11.147 20.851 7.138 24.928-.504.517-1.307 1.001-3.047 1.001zm-38.805-24.33c1.122 3.288 8.074 8.54 17.982 13.544 11.036 5.576 20.014 8.014 21.568 7.301 2.125-2.194-3.401-12.531-7.841-20.836l-1.557-2.92c-7.504-3.013-16.963-7.881-22.956-12.704-5.165 10.3-6.742 14.167-7.196 15.615z" fill="#57ade0"/></g></g><g><path d="m276.833 368.917c-6.633 15.728-35.4 21.945-61.34 19.488-3.734-.347-7.414-.874-10.954-1.581s-7.157-1.639-10.738-2.753c-24.889-7.717-49.058-24.511-49.141-41.564-.066-15.833 14.896-49.955 31.219-75.503 1.67-2.619 3.372-5.144 5.068-7.549 2.143-3.08 4.3-5.965 6.424-8.597l85.266 17.037c.962 3.266 1.838 6.793 2.647 10.48.645 2.855 1.22 5.801 1.758 8.843-.003.017-.003.017-.003.017 5.248 29.875 5.94 67.089-.206 81.682z" fill="#fff"/><path d="m274.997 372.249c-9.042 13.267-35.481 18.438-59.51 16.155-3.734-.347-7.414-.874-10.955-1.581-3.54-.707-7.157-1.638-10.738-2.753-24.889-7.717-49.058-24.511-49.141-41.564-.066-15.833 14.896-49.955 31.219-75.503 3.813-5.959 7.706-11.45 11.492-16.146l8.266 1.652c-.484.771-.985 1.54-1.486 2.308-16.323 25.548-31.286 59.669-31.219 75.503.083 17.053 24.252 33.847 49.141 41.564 3.58 1.115 7.197 2.046 10.738 2.753 3.54.707 7.221 1.234 10.954 1.581 14.282 1.359 29.421.077 41.239-3.969z" fill="#d1eeff"/><g><path d="m226.348 390.615c-3.703 0-7.4-.173-11.022-.517-3.825-.354-7.57-.895-11.127-1.606-3.562-.712-7.232-1.651-10.909-2.796-24.947-7.736-50.249-25.053-50.338-43.182-.072-16.881 15.953-52.115 31.486-76.428 3.93-6.14 7.833-11.623 11.603-16.298.397-.493 1.039-.723 1.66-.6l85.266 17.037c.622.124 1.123.584 1.301 1.192 1.683 5.762 3.18 12.324 4.447 19.504.01.048.015.096.02.146 4.972 28.396 6.205 66.98-.336 82.511v.002c-6.074 14.393-29.158 21.035-52.051 21.035zm-38.301-137.886c-3.492 4.401-7.103 9.506-10.74 15.191-17.417 27.259-31.012 60.018-30.95 74.577.08 16.489 24.178 32.577 47.941 39.945 3.565 1.109 7.121 2.021 10.567 2.709 3.442.689 7.068 1.212 10.778 1.555 24.774 2.353 53.198-3.24 59.614-18.453 5.651-13.415 5.694-48.875.098-80.727-.008-.047-.013-.094-.018-.141-1.169-6.6-2.533-12.657-4.056-18.025zm88.78 116.187h.017z" fill="#57ade0"/></g><g><path d="m225.837 336.603-10.35 51.801c-3.734-.347-7.414-.874-10.955-1.581-3.54-.707-7.157-1.638-10.738-2.753l10.35-51.801z" fill="#96d8ff"/><path d="m215.488 390.106c-.053 0-.105-.002-.158-.007-3.83-.356-7.575-.896-11.132-1.608-3.562-.712-7.232-1.651-10.909-2.796-.833-.259-1.335-1.106-1.164-1.961l10.351-51.8c.088-.443.349-.832.725-1.083.374-.25.833-.343 1.279-.253l21.692 4.335c.921.184 1.52 1.081 1.335 2.003l-10.351 51.801c-.159.802-.865 1.369-1.668 1.369zm-19.721-7.217c3.072.91 6.125 1.67 9.098 2.263 2.97.594 6.075 1.064 9.255 1.404l9.714-48.616-18.351-3.667z" fill="#57ade0"/></g><g><path d="m214.909 296.649-10.245 4.951c-11.05-10.231-20.753-21.895-28.791-34.598 3.813-5.959 7.706-11.45 11.492-16.146l3.941.787c5.447 16.111 13.445 31.358 23.603 45.006z" fill="#96d8ff"/><path d="m204.664 303.303c-.421 0-.835-.155-1.158-.453-11.16-10.335-20.942-22.089-29.073-34.936-.354-.559-.353-1.271.003-1.828 3.93-6.139 7.833-11.622 11.603-16.298.397-.493 1.039-.723 1.66-.6l3.941.787c.597.119 1.084.548 1.279 1.124 5.408 15.996 13.266 30.978 23.355 44.533.304.407.409.929.289 1.423-.121.493-.456.906-.913 1.128l-10.246 4.952c-.235.112-.489.168-.74.168zm-26.77-36.296c7.648 11.917 16.75 22.859 27.079 32.553l7.352-3.553c-9.527-13.136-17.026-27.549-22.314-42.885l-1.964-.392c-3.305 4.163-6.714 8.957-10.153 14.277z" fill="#57ade0"/></g><g><path d="m277.036 287.216c-.003.017-.003.017-.003.017-12.335 8.632-25.773 15.655-39.889 20.857l-7.556-8.508c14.623-8.696 27.866-19.699 39.085-32.479l3.958.791c1.691 5.79 3.175 12.356 4.405 19.322z" fill="#96d8ff"/><path d="m237.144 309.793c-.477 0-.945-.201-1.274-.572l-7.557-8.508c-.336-.38-.487-.891-.409-1.392.078-.502.376-.943.813-1.202 14.526-8.638 27.538-19.452 38.675-32.139.402-.458 1.016-.667 1.615-.546l3.958.791c.622.124 1.123.584 1.301 1.192 1.683 5.762 3.18 12.324 4.447 19.504.038.209.035.422-.007.63l-.003.017c-.086.43-.334.81-.693 1.061-12.451 8.713-26.003 15.799-40.276 21.06-.193.07-.392.104-.59.104zm-4.924-9.81 5.423 6.104c13.262-4.989 25.878-11.589 37.527-19.633-1.133-6.238-2.438-11.979-3.89-17.093l-1.981-.396c-10.77 12.124-23.233 22.549-37.079 31.018z" fill="#57ade0"/></g><g><g><ellipse cx="219.266" cy="313.068" fill="#fff" rx="30.29" ry="30.29" transform="matrix(.951 -.309 .309 .951 -86.115 83.217)"/><path d="m232.002 340.544c-5.63 2.626-12.116 3.536-18.678 2.224-16.399-3.277-27.035-19.225-23.755-35.64 2.716-13.593 14.16-23.237 27.334-24.251-8.445 3.939-14.946 11.705-16.908 21.524-3.277 16.398 7.357 32.364 23.772 35.644 2.771.553 5.537.706 8.235.499z" fill="#d1eeff"/><g><path d="m219.333 345.071c-2.105 0-4.224-.208-6.336-.63-17.299-3.457-28.561-20.342-25.103-37.641 3.456-17.3 20.335-28.562 37.642-25.105 17.299 3.457 28.561 20.343 25.103 37.641-1.675 8.38-6.512 15.607-13.622 20.348-5.318 3.548-11.433 5.387-17.684 5.387zm-.075-60.593c-13.346 0-25.313 9.414-28.025 22.989-1.497 7.488.013 15.11 4.251 21.463 4.236 6.353 10.693 10.675 18.182 12.172 7.492 1.496 15.112-.014 21.463-4.25 6.353-4.237 10.675-10.694 12.172-18.182 3.088-15.458-6.975-30.546-22.432-33.635-1.882-.376-3.762-.557-5.611-.557z" fill="#57ade0"/></g></g><g><ellipse cx="220.725" cy="305.767" fill="#f9cb32" rx="14.348" ry="14.348" transform="matrix(.346 -.938 .938 .346 -142.553 406.97)"/><path d="m234.795 308.576c-1.411 7.064-7.793 11.884-14.789 11.528 4.101-1.837 7.276-5.562 8.22-10.288 1.552-7.765-3.499-15.339-11.264-16.89-.701-.14-1.396-.227-2.084-.26 2.615-1.179 5.61-1.571 8.65-.964 7.781 1.555 12.819 9.108 11.267 16.874z" fill="#ffdf75"/><g><path d="m220.76 321.823c-1.056 0-2.12-.105-3.18-.317-4.204-.84-7.829-3.267-10.209-6.833-2.378-3.567-3.225-7.847-2.385-12.051s3.266-7.829 6.833-10.208c3.566-2.379 7.841-3.228 12.052-2.386 8.678 1.734 14.327 10.206 12.594 18.884-.84 4.205-3.268 7.83-6.835 10.209-2.667 1.779-5.735 2.702-8.87 2.702zm-.06-28.705c-2.471 0-4.889.727-6.991 2.129-2.811 1.874-4.721 4.73-5.383 8.042-.662 3.313.005 6.684 1.879 9.494s4.731 4.722 8.044 5.384c3.304.661 6.682-.004 9.492-1.88 2.811-1.873 4.723-4.73 5.385-8.042 1.365-6.837-3.087-13.511-9.923-14.878-.833-.167-1.671-.249-2.503-.249zm14.096 15.46h.017z" fill="#f0741c"/></g></g><g><path d="m219.984 331.113c-.459 2.296-2.692 3.785-4.988 3.326s-3.785-2.692-3.326-4.988 2.692-3.785 4.988-3.326c2.295.459 3.784 2.692 3.326 4.988z" fill="#f9cb32"/><path d="m215.829 336.225c-.386 0-.775-.038-1.167-.116-1.555-.31-2.897-1.209-3.778-2.53-.881-1.32-1.194-2.905-.883-4.462.64-3.213 3.777-5.308 6.99-4.662 1.558.311 2.9 1.21 3.78 2.53.881 1.32 1.194 2.905.883 4.462-.565 2.822-3.053 4.778-5.825 4.778zm-.002-8.479c-1.184 0-2.247.836-2.488 2.04-.133.664.002 1.34.378 1.904s.948.947 1.611 1.08c1.374.268 2.709-.62 2.985-1.99.133-.665-.002-1.341-.378-1.905s-.948-.947-1.613-1.08c-.165-.033-.332-.049-.495-.049z" fill="#f0741c"/></g><g><path d="m205.199 321.619c-.459 2.296-2.692 3.785-4.988 3.326s-3.785-2.692-3.326-4.988 2.692-3.785 4.988-3.326c2.295.459 3.784 2.692 3.326 4.988z" fill="#f9cb32"/><path d="m201.043 326.731c-.386 0-.775-.038-1.167-.116-3.213-.643-5.303-3.778-4.661-6.991s3.77-5.308 6.99-4.662c3.213.642 5.305 3.778 4.665 6.991v.002c-.565 2.819-3.053 4.776-5.827 4.776zm-.003-8.479c-1.182 0-2.245.836-2.486 2.04-.274 1.371.619 2.71 1.991 2.984 1.377.278 2.711-.619 2.985-1.989.273-1.372-.62-2.712-1.992-2.986-.167-.034-.333-.049-.498-.049zm4.159 3.367h.017z" fill="#f0741c"/></g><g><path d="m237.282 328.03c-.459 2.296-2.692 3.785-4.988 3.326s-3.785-2.692-3.326-4.988 2.692-3.785 4.988-3.326 3.785 2.692 3.326 4.988z" fill="#f9cb32"/><path d="m233.138 333.143c-.391 0-.785-.038-1.177-.117-1.557-.311-2.899-1.209-3.778-2.53-.881-1.32-1.194-2.905-.883-4.462.642-3.212 3.758-5.307 6.991-4.662 3.213.643 5.303 3.779 4.661 6.991v.001c-.311 1.556-1.209 2.898-2.529 3.778-.989.659-2.125 1.001-3.285 1.001zm-.014-8.48c-1.184 0-2.245.836-2.486 2.04-.133.664.002 1.341.378 1.904.376.564.948.947 1.613 1.08.659.131 1.339 0 1.902-.378.564-.376.948-.949 1.081-1.612.274-1.372-.619-2.711-1.991-2.985-.166-.034-.332-.049-.497-.049zm4.158 3.367h.017z" fill="#f0741c"/></g></g><path d="m275.284 278.374c-7.981 3.094-16.431 4.792-25.164 5.218-.12-.007-.227.007-.334.02-7.868.355-15.947-.321-24.13-1.956l-.751-.15c-17.143-3.547-32.287-10.845-43.958-22.051 2.143-3.08 4.3-5.965 6.424-8.597l85.266 17.037c.962 3.266 1.838 6.792 2.647 10.479z" fill="#4ca9e0" opacity=".66"/></g><g><g><path d="m383.372 212.674c-.201 0-.406-.037-.605-.112-.88-.334-1.32-1.318-.986-2.197l39.066-102.675c.334-.879 1.317-1.319 2.197-.986.88.334 1.32 1.318.986 2.197l-39.066 102.675c-.258.68-.905 1.098-1.592 1.098z" fill="#582285"/></g><g><path d="m426.824 109.964c-.922 2.422-3.632 3.638-6.054 2.717s-3.638-3.632-2.717-6.054c.922-2.422 3.632-3.638 6.054-2.717s3.639 3.632 2.717 6.054z" fill="#7d37b8"/><path d="m422.441 114.694c-.768 0-1.538-.141-2.277-.422-3.296-1.254-4.958-4.956-3.704-8.251 1.255-3.294 4.957-4.957 8.252-3.703 1.596.607 2.86 1.8 3.56 3.359s.75 3.297.141 4.893c-.607 1.596-1.801 2.86-3.358 3.559-.836.376-1.724.565-2.614.565zm.002-9.388c-1.206 0-2.345.735-2.799 1.927-.585 1.54.191 3.27 1.731 3.856 1.542.583 3.27-.191 3.857-1.73 0-.001 0-.001 0-.001.284-.746.261-1.558-.067-2.287-.326-.728-.918-1.285-1.663-1.57-.349-.132-.706-.195-1.059-.195z" fill="#582285"/></g><g><path d="m148.264 123.218c-.201 0-.406-.037-.605-.112-.88-.334-1.32-1.318-.986-2.197l39.067-102.675c.333-.88 1.319-1.32 2.197-.986.88.334 1.32 1.318.986 2.197l-39.067 102.675c-.258.68-.905 1.098-1.592 1.098z" fill="#582285"/></g><g><path d="m191.717 20.508c-.922 2.422-3.632 3.638-6.054 2.717-2.422-.922-3.638-3.632-2.717-6.054.922-2.422 3.632-3.638 6.054-2.717s3.638 3.632 2.717 6.054z" fill="#7d37b8"/><path d="m187.324 25.235c-.753 0-1.52-.135-2.267-.418-3.294-1.254-4.956-4.955-3.702-8.251.607-1.597 1.799-2.861 3.359-3.561 1.558-.699 3.298-.747 4.891-.142 1.596.607 2.862 1.8 3.561 3.358.7 1.558.75 3.296.143 4.892-.97 2.55-3.406 4.122-5.985 4.122zm.006-9.386c-.416 0-.832.088-1.222.264-.728.327-1.286.918-1.57 1.664-.585 1.541.19 3.271 1.73 3.857 1.54.585 3.271-.189 3.858-1.73.284-.747.259-1.559-.067-2.288-.328-.728-.918-1.285-1.665-1.57-.345-.132-.705-.197-1.064-.197zm4.387 4.659h.017z" fill="#582285"/></g><g><ellipse cx="144.451" cy="144.732" fill="#96d8ff" rx="33.201" ry="21.594" transform="matrix(.356 -.935 .935 .356 -42.19 228.271)"/><path d="m124.265 137.06c-6.516 17.126-7.474 32.668 8.379 38.699 1.051.4 2.118.66 3.205.819-11.59-7.034-10.246-21.244-4.342-36.762 5.88-15.454 15.371-26.511 27.812-24.492-.947-.67-1.965-1.203-3.064-1.621-14.499-5.518-25.467 6.215-31.99 23.357z" fill="#bae6ff"/><g><path d="m137.776 178.394c-1.962 0-3.89-.336-5.737-1.039-14.653-5.575-17.714-18.956-9.363-40.908 3.555-9.344 8.23-16.565 13.52-20.884 6.185-5.051 13.329-6.246 20.668-3.453 5.947 2.263 10.163 7.856 11.871 15.75 1.651 7.63.76 16.564-2.509 25.156-5.792 15.22-17.661 25.378-28.45 25.378zm-11.917-40.736c-7.642 20.085-5.293 31.688 7.39 36.514 10.244 3.896 23.616-6.132 29.793-22.366 3.038-7.984 3.878-16.233 2.365-23.226-1.457-6.729-4.921-11.448-9.753-13.287-6.221-2.366-12.044-1.388-17.304 2.909-4.828 3.942-9.149 10.67-12.491 19.456z" fill="#57ade0"/></g></g><g><ellipse cx="369.997" cy="230.55" fill="#96d8ff" rx="33.201" ry="21.595" transform="matrix(.356 -.935 .935 .356 22.941 494.374)"/><path d="m390.176 238.236c-6.516 17.126-16.132 29.373-31.984 23.342-1.051-.4-2.021-.915-2.939-1.519 13.334 2.45 21.777-9.06 27.681-24.578 5.88-15.454 6.14-30.023-4.497-36.785 1.153.129 2.268.408 3.366.825 14.5 5.517 14.895 21.573 8.373 38.715z" fill="#bae6ff"/><g><path d="m366.172 264.891c-2.721 0-5.581-.574-8.588-1.718-12.005-4.569-16.204-22.919-9.361-40.907 3.27-8.594 8.543-15.861 14.847-20.463 6.524-4.762 13.391-6.137 19.339-3.874 13.838 5.265 17.25 20.175 9.363 40.907-6.639 17.444-15.067 26.055-25.6 26.055zm10.404-64.615c-3.675 0-7.625 1.451-11.498 4.277-5.777 4.218-10.633 10.938-13.672 18.923-6.176 16.233-2.862 32.613 7.389 36.514 12.687 4.827 22.151-2.281 29.794-22.366 4.182-10.995 8.786-30.358-7.39-36.513-1.469-.559-3.02-.835-4.623-.835zm13.605 37.953h.017z" fill="#57ade0"/></g></g><g><path d="m370.957 228.026c-9.55 25.1-25.85 40.835-46.171 48.845-19.422 7.66-42.522 8.272-66.934 3.284-.149-.039-.283-.071-.438-.094-10.426-2.145-21.062-5.317-31.773-9.393l-.987-.376c-35.018-13.506-63.05-33.883-76.626-59.784-10.379-19.746-12.35-42.725-2.618-68.302 13.868-36.448 45.135-61.447 81.604-69.854 7.205-1.65 14.605-2.66 22.11-2.993 16.475-.728 33.474 1.859 50.011 8.151s30.94 15.653 42.77 27.133l.016.006c5.386 5.238 10.226 10.906 14.506 16.944 21.664 30.509 28.404 69.97 14.53 106.433z" fill="#fff"/><path d="m174.449 220.563c11.969 22.847 35.209 41.401 64.554 54.735-4.432-1.377-8.889-2.927-13.362-4.628l-.987-.376c-35.018-13.506-63.05-33.883-76.626-59.784-10.379-19.746-12.35-42.725-2.618-68.302 13.868-36.448 45.135-61.447 81.604-69.854 7.205-1.65 14.605-2.66 22.11-2.993 16.475-.728 33.474 1.859 50.011 8.151 4.472 1.702 8.79 3.618 12.932 5.758-12.195-3.146-24.497-4.383-36.522-3.857-7.506.333-14.905 1.344-22.11 2.993-36.469 8.407-67.736 33.407-81.604 69.854-9.731 25.578-7.761 48.557 2.618 68.303z" fill="#d1eeff"/><g><path d="m287.984 285.103c-9.601 0-19.772-1.093-30.471-3.279-.173-.042-.254-.065-.349-.079-10.417-2.139-21.197-5.326-32.126-9.485l-.986-.374c-37.536-14.478-64.344-35.427-77.531-60.586-11.247-21.398-12.157-44.848-2.701-69.697 13.532-35.565 44.49-62.073 82.813-70.908 7.339-1.68 14.881-2.701 22.419-3.035 17.224-.753 34.283 2.018 50.69 8.261 16.342 6.218 30.897 15.442 43.262 27.415.037.031.073.062.107.095 5.401 5.252 10.35 11.032 14.708 17.18 22.763 32.057 28.271 72.439 14.733 108.021-9.28 24.39-25.14 41.153-47.138 49.825-11.231 4.427-23.752 6.646-37.43 6.646zm-33.382-214.161c-1.799 0-3.597.04-5.401.12-7.332.325-14.669 1.318-21.805 2.952-37.212 8.579-67.265 34.299-80.393 68.799-9.093 23.898-8.24 46.407 2.533 66.904 12.8 24.418 38.987 44.815 75.733 58.988l.978.372c10.761 4.095 21.365 7.23 31.512 9.317.125.017.309.059.517.112 25.204 5.149 47.399 4.074 65.885-3.218 21.07-8.305 36.28-24.413 45.206-47.867 13.133-34.518 7.776-73.711-14.327-104.84-4.216-5.946-8.997-11.537-14.215-16.623-.037-.029-.072-.059-.103-.091-12.049-11.692-26.244-20.696-42.191-26.764-14.252-5.422-29.007-8.161-43.929-8.161zm116.356 157.084h.017z" fill="#57ade0"/></g></g><g><g><path d="m287.511 125.782-13.241 17.609-.068.083c-.042-.034-.083-.068-.125-.102-.057-.04-.115-.08-.173-.12-18.332-13.881-32.644-32.773-41.318-53.983-2.244-5.5-4.12-11.151-5.571-16.915 7.205-1.65 14.605-2.66 22.11-2.993 1.232 4.423 2.754 8.755 4.572 12.981 6.372 15.051 16.222 28.62 28.658 39.273 1.669 1.455 3.385 2.837 5.156 4.167z" fill="#f9cb32"/><path d="m253.697 82.342c-.082.023-.18.041-.261.064-7.189 1.656-14.168 3.956-20.849 6.862-2.244-5.5-4.12-11.151-5.571-16.915 7.205-1.65 14.605-2.66 22.11-2.993 1.232 4.424 2.754 8.756 4.571 12.982z" fill="#f9ba32"/><g><path d="m274.202 145.177c-.392 0-.773-.135-1.079-.386-.017-.011-.231-.17-.246-.181-18.478-13.991-32.956-32.905-41.868-54.697-2.303-5.647-4.202-11.414-5.646-17.143-.111-.444-.04-.915.2-1.305s.625-.668 1.071-.77c7.337-1.68 14.879-2.701 22.417-3.035.805-.027 1.503.481 1.715 1.244 1.214 4.358 2.727 8.653 4.497 12.766 6.298 14.88 16.048 28.243 28.2 38.652 1.602 1.395 3.304 2.771 5.072 4.098.361.271.6.675.664 1.123.063.447-.053.901-.326 1.263l-13.241 17.61c-.013.019-.096.121-.111.14-.286.349-.7.57-1.149.615-.058.004-.115.006-.17.006zm-45.095-71.541c1.342 5.014 3.04 10.049 5.055 14.99 8.51 20.808 22.225 38.919 39.709 52.458l11.264-14.975c-1.35-1.052-2.658-2.127-3.9-3.21-12.539-10.741-22.607-24.539-29.106-39.893-1.648-3.832-3.083-7.823-4.269-11.877-6.301.349-12.594 1.19-18.753 2.507z" fill="#f0741c"/></g></g></g><g><g><g><path d="m356.428 121.594c-23.93 16.203-53.311 24.082-82.158 21.797-.07-.008-.124-.01-.193-.019-.054-.002-.124-.011-.177-.013l.004-.108 1.814-21.958c2.207.184 4.423.298 6.638.321 20.956.376 41.931-5.618 59.551-16.97l.016.006c5.385 5.239 10.225 10.907 14.505 16.944z" fill="#f9cb32"/><path d="m284.217 145.487c-3.359 0-6.722-.131-10.081-.397l-.06-1.717-.24 1.69c-.913-.077-1.68-.868-1.638-1.782l1.821-22.126c.038-.451.253-.868.597-1.16s.797-.442 1.242-.397c2.248.188 4.44.294 6.512.315 20.517.375 41.326-5.562 58.613-16.699.459-.296 1.031-.354 1.54-.155.213.083.422.213.585.373 5.401 5.252 10.35 11.032 14.708 17.179.266.374.369.839.288 1.29-.083.45-.343.849-.722 1.106-21.642 14.651-47.29 22.48-73.165 22.48zm-9.948-2.12.002.024.002-.024zm1.465-1.575c27.443 1.882 55.129-5.421 78.281-20.635-3.724-5.09-7.861-9.907-12.333-14.353-17.618 11.029-38.691 16.877-59.358 16.514-1.618-.017-3.313-.083-5.049-.199z" fill="#f0741c"/></g></g></g><g><path d="m324.787 276.872c-19.422 7.66-42.522 8.272-66.934 3.284-.149-.039-.283-.071-.438-.094-10.815-2.366-21.925-5.682-32.76-9.768-35.018-13.506-63.05-33.883-76.626-59.784-9.51-33.572 22.638-100.344 44.43-109.78 52.776-4.097 130.653 26.973 170.827 64.998 12.365 29.994-16.229 94.801-38.499 111.144z" fill="#96d8ff"/><path d="m287.984 285.103c-9.601 0-19.772-1.093-30.471-3.279-.173-.042-.254-.065-.349-.079-11.026-2.407-22.128-5.717-33.109-9.858-37.539-14.479-64.347-35.428-77.535-60.587-.055-.104-.098-.214-.13-.327-9.983-35.246 23.848-102.477 45.392-111.806.173-.075.358-.121.546-.136 51.548-4.013 130.41 25.971 172.13 65.459.175.165.313.365.404.587 12.576 30.508-16.189 96.378-39.067 113.166-.118.087-.246.158-.383.211-11.229 4.43-23.75 6.649-37.428 6.649zm-138.364-75.226c12.828 24.347 38.981 44.685 75.649 58.828 10.815 4.079 21.757 7.341 32.512 9.693.103.012.288.055.496.108 25.11 5.13 47.234 4.081 65.679-3.137 22.018-16.381 49.613-79.242 37.893-108.657-41.116-38.724-118.33-68.102-168.967-64.306-20.135 9.149-52.462 74.373-43.262 107.471zm175.166 66.995h.017z" fill="#57ade0"/></g><g><path d="m314.705 268.9c-20.31 8.27-58.189 2.329-91.757-11.445-5.363-2.186-10.594-4.577-15.628-7.149-7.685-3.89-14.883-8.196-21.325-12.815-11.141-7.974-19.974-16.892-24.868-26.297-.231-.398-.444-.843-.664-1.273-12.208-28.204 17.35-90.421 37.571-98.743 21.347-1.37 47.346 3.566 72.811 12.49 19.983 7.002 39.638 16.448 56.451 27.236 8.566 5.5 16.401 11.342 23.176 17.382.572.509 1.143 1.018 1.709 1.543 1.902 4.386 2.794 9.608 2.862 15.319.422 31.025-23.271 76.726-40.338 83.752z" fill="#582285"/><path d="m322.206 263.791c-2.578 2.371-5.104 4.125-7.501 5.108-20.31 8.27-58.189 2.329-91.757-11.445-5.363-2.186-10.594-4.577-15.628-7.149-7.685-3.89-14.883-8.196-21.325-12.815-11.141-7.974-19.974-16.892-24.868-26.297-.231-.398-.444-.843-.664-1.273-12.208-28.204 17.35-90.421 37.571-98.743 2.411-.158 4.882-.238 7.41-.223-18.45 19.472-37.827 67.38-27.535 91.138.219.43.432.875.664 1.273 4.894 9.405 13.727 18.323 24.868 26.297 6.442 4.619 13.64 8.925 21.325 12.815 5.034 2.571 10.265 4.962 15.628 7.149 28.666 11.763 60.471 17.816 81.812 14.165z" fill="#4e1c7a"/><path d="m314.705 268.9c-3.257 1.33-6.973 2.285-11.052 2.901 15.574-14.882 32.547-51.733 32.187-78.034-.068-5.711-.96-10.933-2.862-15.319-.565-.525-1.137-1.034-1.709-1.543-6.776-6.04-14.61-11.882-23.177-17.382-16.812-10.788-36.467-20.234-56.45-27.236-22.204-7.774-44.809-12.531-64.383-12.708 3.679-4.066 7.364-7 10.775-8.399 21.347-1.37 47.346 3.566 72.811 12.49 19.983 7.002 39.638 16.448 56.451 27.236 8.566 5.5 16.401 11.342 23.176 17.382.572.509 1.143 1.018 1.709 1.543 1.902 4.386 2.794 9.608 2.862 15.319.422 31.023-23.271 76.724-40.338 83.75z" fill="#682e99"/><g><path d="m291.112 274.342c-19.637 0-44.515-5.342-68.81-15.311-5.396-2.2-10.7-4.626-15.757-7.208-7.859-3.978-15.109-8.336-21.543-12.948-12.044-8.62-20.585-17.669-25.384-26.895-.151-.254-.329-.609-.509-.964l-.161-.321c-7.971-18.405 1.566-45.959 6.033-56.956 8.989-22.12 22.012-39.857 32.405-44.135.173-.071.354-.112.539-.125 20.485-1.314 46.581 3.154 73.485 12.582 20.307 7.116 39.951 16.594 56.805 27.41 8.802 5.652 16.672 11.554 23.39 17.544.58.517 1.159 1.033 1.734 1.566.171.16.309.354.402.57 1.919 4.422 2.929 9.797 3.005 15.976.436 32.146-24.301 78.311-41.394 85.347-.002.001-.005.002-.007.003-6.392 2.603-14.696 3.865-24.233 3.865zm-92.681-161.483c-9.424 4.093-21.839 21.351-30.293 42.161-8.969 22.073-11.254 42.344-6.11 54.223l.126.244c.146.291.291.583.446.849 4.59 8.816 12.782 17.462 24.386 25.769 6.293 4.512 13.392 8.777 21.102 12.68 4.977 2.541 10.191 4.926 15.504 7.09 35.319 14.494 71.672 19.095 90.464 11.447 16.229-6.679 39.706-51.101 39.285-82.153-.068-5.573-.938-10.393-2.584-14.339-.471-.431-.943-.853-1.417-1.275-6.587-5.871-14.313-11.665-22.964-17.221-16.635-10.674-36.031-20.032-56.093-27.061-26.356-9.234-51.856-13.635-71.852-12.414zm116.274 156.04h.017z" fill="#582285"/></g><g fill="#fff"><g><path d="m339.243 189.115c1.979 20.496-10.754 24.774-14.457 21.727-5.069-2.995-4.962-9.134-5.346-20.099-.675-19.273-9.889-25.081-8.714-29.782 2.06-6.676 26.379 6.006 28.517 28.154z"/><path d="m330.7 230.208c-.648 3.617-4.105 6.024-7.722 5.377-3.617-.648-6.024-4.105-5.376-7.722s4.105-6.024 7.722-5.376 6.024 4.105 5.376 7.721z"/></g><g opacity=".18"><path d="m170.974 200.938c-1.979-20.496 10.754-24.774 14.457-21.727 5.07 2.995 4.962 9.134 5.346 20.099.675 19.273 9.889 25.081 8.714 29.782-2.059 6.677-26.379-6.005-28.517-28.154z"/><path d="m179.517 159.845c.648-3.617 4.105-6.024 7.722-5.376s6.024 4.105 5.377 7.722c-.648 3.617-4.105 6.024-7.722 5.376s-6.024-4.105-5.377-7.722z"/></g></g></g></g></g></svg>