<svg id="Слой_1" height="512" viewBox="0 0 512 512" width="512" xmlns="http://www.w3.org/2000/svg"><g><g><path d="m485.451 402.24c-4.07 13.103-17.728 21.376-31.327 23.179 4.525 8.702.728 20.73-7.974 25.255-8.702 4.517-20.73.711-25.247-7.991-6.899 6.717-17.62 9.199-26.769 6.188-9.141-3.011-16.296-11.383-17.843-20.888l-207.51 9.877c-1.481 5.303-6.345 9.488-11.813 10.167-5.46.678-11.201-2.2-13.93-6.973-4.806 10.274-16.677 16.751-27.919 15.237-11.25-1.522-20.97-10.911-22.881-22.095-3.979 3.168-10.357 2.738-13.873-.927-3.524-3.673-3.689-10.059-.364-13.906-9.728 8.322-26.306 6.668-34.189-3.416-7.892-10.076-5.518-26.562 4.897-34.007-7.908.439-15.635-5.757-16.925-13.566-1.291-7.817 4.037-16.164 11.664-18.29-13.997-5.344-21.682-23.187-15.941-37.027 5.741-13.848 23.799-21.02 37.473-14.89-5.435-5.733-6.916-14.865-3.557-22.021 3.35-7.155 11.316-11.862 19.2-11.358-5.559-6.601-6.519-16.71-2.291-24.238 4.227-7.536 13.351-11.986 21.888-10.679-10.969-4.326-16.495-18.853-11.184-29.383 5.311-10.531 20.275-14.716 30.276-8.471-4.632-6.27-5.038-15.378-.968-22.037 4.062-6.659 12.351-10.456 20.044-9.199-11.275-6.097-15.577-22.302-8.81-33.188 4.335-6.965 12.632-10.828 20.788-10.746 4.583.033 9.116 1.315 12.88 3.987-6.684-6.783-6.924-18.869-.513-25.909 6.411-7.048 18.456-7.95 25.843-1.936-9.249-10.729-7.189-29.201 4.202-37.622 11.391-8.413 29.664-4.963 37.192 7.031-4.856-10.688 2.258-24.974 13.715-27.538s23.981 7.338 24.13 19.076l.099-.066c2.043-9.207 13.07-14.096 22.186-11.689 9.124 2.416 15.072 13.145 12.293 22.161 4.252-4.484 11.805-5.36 16.958-1.952 5.162 3.4 7.337 10.68 4.881 16.354 10.059-6.246 24.85-2.912 31.253 7.04 6.411 9.943 3.326 24.792-6.519 31.36 7.065-3.052 16.214.223 19.746 7.056s.91 16.189-5.658 20.193c6.75-2.688 15.246.19 18.977 6.419 3.739 6.237 2.258 15.089-3.301 19.771 9.654-6.411 24.279-3.416 30.641 6.27 6.353 9.687 3.284 24.304-6.444 30.607 6.858-1.125 14.22 2.986 16.851 9.406 2.639 6.428.298 14.526-5.369 18.538 8.917-4.359 20.846-1.059 26.248 7.263 5.402 8.33 3.557 20.565-4.053 26.934 7.817 2.358 16.379 5.303 20.375 12.425 3.177 5.683.447 14.253-4.823 16.611 6.601.058 13.145 3.21 17.512 8.181 2.051 2.333 3.632 5.071 4.5 8.074 3.16 10.853-3.267 23.617-13.873 27.547 7.52-.67 15.08 5.005 16.536 12.408 1.456 7.404-3.383 15.519-10.597 17.752 13.724-.189 23.295 16.538 19.217 29.641z" fill="#fff8f5"/><g><g><path d="m112.411 330.31c-5.841 0-11.704-2.241-15.727-6.527-6.946-7.398-7.465-19.883-1.156-27.832 5.176-6.521 14.369-9.261 22.354-7.225-1.984-5.136-1.29-11.316 2.173-15.796 4.507-5.829 13.079-7.98 19.935-5.004 6.694 2.904 11.087 10.373 10.445 17.758-.082.949-.917 1.653-1.867 1.57-.949-.083-1.652-.919-1.569-1.868.516-5.951-3.009-11.963-8.382-14.294-5.367-2.329-12.32-.593-15.832 3.95-3.565 4.611-3.33 11.812.524 16.051.572.629.601 1.582.066 2.244-.534.662-1.472.835-2.207.41-7.359-4.262-17.648-2.31-22.937 4.352-5.287 6.661-4.852 17.125.969 23.325 5.822 6.201 16.238 7.294 23.218 2.435.78-.544 1.857-.352 2.401.431.544.782.352 1.857-.431 2.401-3.505 2.437-7.735 3.619-11.977 3.619z" fill="#dbafa6"/></g><g><path d="m99.364 377.172c-1.637 0-3.314-.314-4.956-.944-3.57-1.367-6.453-4.035-7.911-7.318-2.756-6.208-.634-14.283 4.936-18.783 5.128-4.142 12.714-5.186 19.326-2.661.89.34 1.336 1.337.997 2.227-.34.891-1.34 1.336-2.227.996-5.485-2.096-11.738-1.262-15.927 2.122-4.396 3.551-6.095 9.871-3.951 14.699 1.088 2.452 3.272 4.455 5.992 5.497 2.501.958 5.07.952 7.233-.017.869-.391 1.89-.001 2.28.869.39.869.001 1.89-.869 2.28-1.539.688-3.209 1.033-4.923 1.033z" fill="#dbafa6"/></g><g><path d="m114.875 432.055c-3.288 0-6.517-1.038-9.031-3.117-2.666-2.204-4.33-5.583-4.566-9.271-.048-.749-.036-1.484.035-2.2-1.001.342-2.016.533-3.097.517-3.832-.023-7.362-2.597-8.391-6.121-1.113-3.807 1.003-8.107 4.619-9.389.899-.319 1.883.151 2.203 1.049.318.898-.152 1.884-1.049 2.203-1.883.668-3.056 3.132-2.461 5.17.602 2.061 2.795 3.625 5.1 3.638 1.706.012 3.454-.797 4.742-2.106.377-.611.813-1.184 1.307-1.712.601-.642 1.588-.729 2.29-.204.704.525.902 1.496.458 2.254-.369.63-.799 1.215-1.28 1.749-.788 1.409-1.15 3.107-1.032 4.931.173 2.701 1.414 5.255 3.321 6.832 3.787 3.132 10.032 3.067 14.215-.152 3.959-3.046 6.082-8.735 5.283-14.155-.139-.943.513-1.819 1.456-1.958.94-.139 1.819.513 1.958 1.455.991 6.722-1.597 13.548-6.593 17.393-2.766 2.128-6.157 3.194-9.487 3.194z" fill="#dbafa6"/></g><g><path d="m394.932 310.361c-.92 0-1.844-.067-2.766-.207-.942-.142-1.59-1.022-1.448-1.964.143-.942 1.016-1.593 1.964-1.448 8.265 1.251 17.044-4.813 18.805-12.975s-3.743-17.31-11.78-19.576c-6.852-1.933-14.743 1.36-18.635 7.254-.389 1.363-1.022 2.65-1.907 3.777-.522.665-1.448.852-2.186.448-.741-.406-1.078-1.287-.799-2.084.439-1.251 1.007-2.437 1.687-3.549.658-2.952-.222-6.383-2.488-8.627-3.025-2.996-8.124-3.851-12.397-2.078-4.042 1.675-7.279 5.476-8.66 10.166-.269.914-1.227 1.438-2.142 1.168-.914-.269-1.437-1.228-1.168-2.142 1.673-5.68 5.654-10.308 10.65-12.379 5.521-2.288 12.161-1.132 16.146 2.814 1.9 1.883 3.091 4.321 3.534 6.857 5.075-4.696 12.507-6.861 19.303-4.945 9.869 2.783 16.379 13.602 14.215 23.625-1.966 9.11-10.733 15.865-19.928 15.865z" fill="#dbafa6"/></g><g><path d="m409.304 419.466c-.502 0-1.003-.028-1.505-.086-7.517-.865-13.717-8.249-13.27-15.802.057-.951.871-1.679 1.824-1.62.952.056 1.677.873 1.621 1.824-.345 5.817 4.431 11.504 10.22 12.17 5.783.661 11.731-3.788 12.716-9.531.105-.614.533-1.123 1.119-1.333s1.24-.087 1.711.321c4.379 3.797 10.845 4.717 15.725 2.236 4.975-2.529 7.806-8.741 6.31-13.847-.753-2.571-2.665-4.84-5.246-6.227-2.398-1.288-5.096-1.616-7.401-.904-.908.282-1.877-.228-2.159-1.138-.281-.91.229-1.876 1.138-2.158 3.233-.999 6.802-.587 10.054 1.16 3.39 1.821 5.913 4.845 6.924 8.297 1.972 6.733-1.568 14.593-8.058 17.892-5.347 2.718-12.185 2.198-17.437-1.134-2.211 5.692-8.168 9.88-14.286 9.88z" fill="#dbafa6"/></g><g><path d="m295.022 107.585c-.409 0-.819-.144-1.149-.439-.71-.635-.772-1.725-.137-2.436 4.706-5.267 7.918-13.342 4.485-19.506-1.443-2.593-4.043-4.494-7.319-5.353-3.915-1.027-8.211-.438-11.493 1.573-5.846 3.583-9.469 10.977-9.455 19.296.001.924-.724 1.685-1.647 1.727-.942.035-1.715-.65-1.797-1.57-.415-4.663-3.402-8.962-7.435-10.699-4.163-1.794-9.399-.676-12.18 2.597-2.82 3.318-2.762 8.858.125 11.855.661.686.64 1.778-.046 2.44-.685.66-1.778.64-2.439-.047-4.111-4.27-4.233-11.818-.269-16.483 3.785-4.452 10.585-5.939 16.175-3.532 2.884 1.242 5.31 3.411 6.998 6.107 1.607-6.295 5.205-11.592 10.167-14.633 4.067-2.493 9.363-3.229 14.172-1.969 4.194 1.1 7.553 3.59 9.459 7.012 4.258 7.647.594 17.305-4.927 23.484-.342.382-.813.576-1.288.576z" fill="#dbafa6"/></g><g><path d="m185.403 143.096c-.148 0-.298-.019-.448-.059-2.356-.631-4.45-2.411-5.602-4.759-.997-2.033-1.321-4.519-.913-7.001.667-4.053 3.274-7.743 6.804-9.63 3.66-1.958 8.312-1.939 11.85.046 3.665 2.055 6.049 6.201 5.934 10.316-.026.936-.793 1.677-1.724 1.677-.016 0-.032 0-.049-.001-.952-.027-1.703-.82-1.676-1.773.08-2.868-1.597-5.766-4.173-7.211-2.539-1.423-5.889-1.428-8.536-.012-2.604 1.392-4.53 4.131-5.026 7.147-.293 1.779-.077 3.527.606 4.922.72 1.467 1.99 2.568 3.398 2.946.92.246 1.466 1.193 1.22 2.113-.207.771-.904 1.279-1.665 1.279z" fill="#dbafa6"/></g></g><g><g opacity=".5"><path d="m485.451 402.24c-4.07 13.103-17.728 21.376-31.327 23.179 4.525 8.702.728 20.73-7.974 25.255-8.702 4.517-20.73.711-25.247-7.991-6.899 6.717-17.62 9.199-26.769 6.188-9.141-3.011-16.296-11.383-17.843-20.888l-207.51 9.877c-1.481 5.303-6.345 9.488-11.813 10.167-5.46.678-11.201-2.2-13.93-6.973-4.806 10.274-16.677 16.751-27.919 15.237-11.25-1.522-20.97-10.911-22.881-22.095-3.979 3.168-10.357 2.738-13.873-.927-3.524-3.673-3.689-10.059-.364-13.906-9.728 8.322-26.306 6.668-34.189-3.416-7.892-10.076-5.518-26.562 4.897-34.007-7.908.439-15.635-5.757-16.925-13.566-1.291-7.817 4.037-16.164 11.664-18.29-13.997-5.344-21.682-23.187-15.941-37.027 5.741-13.848 23.799-21.02 37.473-14.89-5.435-5.733-6.916-14.865-3.557-22.021 3.35-7.155 11.316-11.862 19.2-11.358-5.559-6.601-6.519-16.71-2.291-24.238 4.227-7.536 13.351-11.986 21.888-10.679-10.969-4.326-16.495-18.853-11.184-29.383 5.311-10.531 20.275-14.716 30.276-8.471-4.632-6.27-5.038-15.378-.968-22.037 4.062-6.659 12.351-10.456 20.044-9.199-11.275-6.097-15.577-22.302-8.81-33.188 4.335-6.965 12.632-10.828 20.788-10.746-1.605 2.473-3.764 5.038-4.517 7.337-1.315 4.029-1.671 8.38-.91 12.549 1.522 8.355 7.462 15.775 15.279 19.084-7.131 1.555-13.103 7.552-14.625 14.691-1.522 7.147 1.481 15.047 7.362 19.382-3.342-2.457-16.876 3.904-19.68 5.939-6.155 4.459-10.216 12.102-9.604 19.779.926 11.498 12.144 21.144 23.642 20.341-9.497 2.498-20.366 12.21-12.483 22.492 4.69 6.122 13.409 7.71 21.036 6.56-10.68 3.375-14.882 17.959-9.579 27.828 7.751 14.435 27.025 16.875 40.311 9.008-5.882 4.136-8.099 12.657-5.675 19.514 2.597 7.337 9.604 12.574 17.173 14.352 8.281 1.944 14.625-2.258 22.302-2.018 6.303.19 14.708 5.84 20.573 8.281 15.089 6.287 30.268 12.375 45.522 18.257 18.257 7.04 36.63 13.782 55.093 20.234 9.24 3.226 18.472 6.552 27.811 9.463 6.543 2.035 13.666 6.254 20.523 3.226 5.12-2.267 8.62-7.809 8.454-13.409 9.885 4.5 22.815 2.755 29.855-5.509 6.353-7.462 6.03-19.994-.86-26.595 5.559 3.607 13.103 4.128 19.001 1.034 7.362-3.855 12.69-14.741 5.418-21.541 6.171 1.861 12.839-2.573 15.717-8.347 1.109-2.225 1.39-7.197 2.159-11.962 2.051 2.333 3.632 5.071 4.5 8.074 3.16 10.853-3.267 23.617-13.873 27.547 7.52-.67 15.08 5.005 16.536 12.408 1.456 7.404-3.383 15.519-10.597 17.752 13.728-.188 23.299 16.539 19.221 29.642z" fill="#f0c0a8"/></g></g><g><path d="m118.461 458.239c-1.191 0-2.383-.078-3.574-.238-11.234-1.52-20.889-10.203-23.816-21.079-4.55 2.101-10.445 1.199-13.952-2.458-2.642-2.753-3.669-6.795-3.043-10.528-4.192 1.997-9.072 2.837-14.042 2.338-7.131-.714-13.539-4.091-17.583-9.264-4.048-5.168-5.785-12.201-4.766-19.294.802-5.572 3.225-10.629 6.818-14.395-7.074-1.504-13.235-7.477-14.423-14.666-1.201-7.275 2.819-15.008 9.161-18.656-5.504-3.126-10.042-8.268-12.753-14.565-3.279-7.618-3.489-16.015-.576-23.038 2.913-7.027 9.006-12.815 16.717-15.879 5.878-2.336 12.159-2.875 17.891-1.62-3.18-5.933-3.547-13.334-.66-19.484 3.177-6.786 10.06-11.507 17.461-12.277-4.254-7.015-4.549-16.21-.495-23.431 3.537-6.306 10.087-10.567 17.149-11.566-3.072-2.544-5.531-5.992-7.062-10.011-2.381-6.25-2.169-12.963.582-18.417 2.749-5.451 8.018-9.611 14.455-11.411 4.549-1.273 9.213-1.236 13.383.038-2.433-6.201-1.96-13.534 1.538-19.258 3.427-5.618 9.568-9.352 16.063-10.118-3.475-3.23-6.072-7.586-7.386-12.536-1.846-6.956-.912-14.153 2.563-19.744 4.429-7.115 13.19-11.634 22.271-11.56 2.734.02 5.367.449 7.822 1.262-3.232-7.327-2.183-16.651 3.251-22.62 5.41-5.946 14.541-7.878 22.122-5.399-2.114-4.561-2.96-9.855-2.357-15.249.88-7.864 4.718-14.838 10.529-19.135 5.818-4.297 13.618-5.917 21.4-4.443 5.18.981 9.866 3.24 13.553 6.449-.171-3.698.654-7.544 2.46-11.171 3.018-6.06 8.173-10.301 14.143-11.637 5.971-1.337 12.441.305 17.752 4.504 3.607 2.851 6.189 6.493 7.5 10.453 1.378-2.027 3.248-3.792 5.522-5.178 4.87-2.966 11.021-3.88 16.459-2.443 4.8 1.271 9.056 4.709 11.677 9.434 1.828 3.295 2.704 6.933 2.572 10.442 4.785-2.551 10.921-2.474 15.513.562 4.744 3.125 7.239 8.992 6.57 14.541 10.557-4.193 23.821-.343 30.062 9.359 5.791 8.983 4.518 21.371-2.212 29.408 6.289.006 12.577 3.454 15.52 9.149 3.002 5.807 2.084 13.108-1.737 18.266 5.944.041 11.934 3.126 15.003 8.252 2.93 4.888 2.969 11.244.564 16.386 3.642-.995 7.624-1.125 11.552-.322 6.367 1.303 11.903 4.917 15.186 9.916 3.281 5.003 4.394 11.521 3.053 17.883-.971 4.611-3.156 8.777-6.196 11.957 5.919.902 11.43 4.917 13.704 10.465 2.109 5.137 1.425 11.094-1.431 15.731 8.418-1.184 17.454 2.533 22.161 9.785 5.362 8.268 4.243 19.803-2.222 27.086 7.555 2.435 14.834 5.655 18.601 12.368 1.778 3.181 2.063 7.416.765 11.332-.619 1.866-1.539 3.517-2.679 4.854 5.455 1.079 10.629 4.025 14.396 8.312 2.309 2.626 3.945 5.564 4.861 8.733 2.884 9.905-1.474 21.064-9.769 26.917 6.075 1.781 11.239 6.932 12.468 13.185 1.252 6.366-1.701 13.221-6.814 17.141 4.188 1.264 8.029 4.023 10.995 7.993 5.043 6.753 6.726 15.606 4.392 23.104-4.228 13.613-17.985 21.69-30.501 24.018 3.357 9.237-.853 20.859-9.651 25.434-8.85 4.593-20.856 1.301-26.446-6.846-7.331 6.045-17.872 8.125-26.905 5.151-9.235-3.042-16.588-11.258-18.713-20.732l-204.832 9.75c-2.02 5.379-7.145 9.502-12.869 10.212-5.156.642-10.525-1.532-13.93-5.432-5.149 8.498-14.855 13.93-24.785 13.93zm-26.225-25.769c.208 0 .416.037.615.113.57.218.982.72 1.085 1.322 1.773 10.375 10.978 19.264 21.412 20.676 10.439 1.404 21.665-4.725 26.125-14.258.273-.584.848-.966 1.492-.993.633-.024 1.249.308 1.568.867 2.401 4.197 7.419 6.711 12.22 6.118 4.802-.596 9.064-4.263 10.364-8.918.2-.716.837-1.224 1.58-1.259l207.51-9.877c.859-.042 1.644.581 1.785 1.446 1.443 8.868 8.146 16.715 16.68 19.526 8.527 2.806 18.587.483 25.026-5.785.392-.381.941-.551 1.479-.467.539.087 1.005.424 1.256.908 4.097 7.896 15.023 11.354 22.922 7.255 7.893-4.104 11.344-15.033 7.238-22.928-.26-.499-.26-1.093 0-1.592.259-.499.746-.84 1.303-.914 11.982-1.589 25.875-9.001 29.906-21.981 0 0 .001-.001.001-.001 1.98-6.363.464-14.219-3.863-20.013-3.612-4.837-8.45-7.47-13.683-7.388-.875.015-1.593-.608-1.728-1.455-.134-.847.375-1.664 1.194-1.918 6.395-1.98 10.707-9.203 9.414-15.772-1.293-6.57-8.037-11.619-14.69-11.023-.86.077-1.646-.496-1.836-1.339-.191-.843.273-1.697 1.084-1.997 9.724-3.603 15.713-15.494 12.815-25.447-.775-2.68-2.168-5.174-4.14-7.417-4.132-4.703-10.2-7.543-16.231-7.595-.811-.007-1.508-.578-1.674-1.372s.244-1.596.984-1.927c1.951-.873 3.642-2.98 4.522-5.635.999-3.012.812-6.212-.501-8.56-3.597-6.413-11.54-9.255-19.366-11.615-.607-.183-1.065-.684-1.192-1.306-.127-.621.096-1.262.583-1.669 6.926-5.797 8.627-17.096 3.713-24.673-4.916-7.574-15.927-10.62-24.043-6.652-.809.395-1.783.103-2.241-.67s-.247-1.769.487-2.288c5.01-3.547 7.105-10.784 4.77-16.475-2.33-5.683-8.901-9.353-14.976-8.358-.811.131-1.594-.319-1.888-1.08-.294-.762-.014-1.626.671-2.07 4.25-2.754 7.349-7.469 8.501-12.935 1.153-5.471.219-11.039-2.562-15.278-2.782-4.237-7.518-7.309-12.993-8.429-5.468-1.118-11.03-.154-15.251 2.649-.763.506-1.788.329-2.335-.403-.548-.732-.43-1.765.27-2.354 4.932-4.154 6.248-12.033 2.932-17.564-3.311-5.529-10.874-8.086-16.859-5.703-.834.329-1.781-.03-2.181-.832-.401-.802-.12-1.777.646-2.244 5.789-3.529 8.136-11.906 5.023-17.927-3.115-6.026-11.305-8.954-17.529-6.265-.817.354-1.773.025-2.2-.76-.426-.784-.185-1.764.558-2.259 9.045-6.035 11.918-19.853 6.026-28.99-5.882-9.143-19.651-12.245-28.893-6.509-.641.398-1.466.333-2.036-.16-.571-.493-.756-1.299-.456-1.991 2.123-4.905.218-11.288-4.246-14.228-4.456-2.947-11.077-2.184-14.757 1.699-.552.582-1.431.707-2.123.302-.691-.404-1.014-1.232-.778-1.997 1.187-3.853.625-8.304-1.544-12.214-2.168-3.908-5.645-6.741-9.542-7.772-4.547-1.201-9.699-.433-13.782 2.054-3.302 2.012-5.532 4.974-6.279 8.34-.096.433-.355.812-.724 1.059l-.099.066c-.526.353-1.204.388-1.763.094-.56-.295-.914-.872-.923-1.505-.063-4.998-2.743-10.071-7.169-13.57s-9.977-4.936-14.859-3.844c-4.879 1.092-9.293 4.759-11.808 9.809s-2.782 10.781-.714 15.333c.375.827.046 1.803-.753 2.233-.799.431-1.795.167-2.278-.602-3.332-5.308-9.163-9.095-15.998-10.389-6.843-1.294-13.66.101-18.708 3.828-5.042 3.728-8.378 9.83-9.151 16.744-.774 6.917 1.132 13.611 5.23 18.365.584.677.553 1.688-.07 2.329s-1.633.699-2.326.135c-6.697-5.451-17.667-4.63-23.478 1.758-5.815 6.386-5.597 17.384.466 23.538.627.637.665 1.648.085 2.329-.581.681-1.585.805-2.313.289-3.336-2.368-7.448-3.637-11.893-3.669-.081-.001-.161-.001-.241-.001-7.841 0-15.304 3.881-19.071 9.933-2.975 4.786-3.761 10.996-2.157 17.037 1.603 6.041 5.366 11.042 10.324 13.723.741.401 1.084 1.278.812 2.075-.272.798-1.085 1.28-1.911 1.145-7.051-1.152-14.574 2.299-18.293 8.394-3.726 6.097-3.362 14.368.883 20.114.492.667.441 1.588-.121 2.197-.562.608-1.477.731-2.18.292-4.355-2.72-10.011-3.397-15.518-1.858-5.506 1.54-9.99 5.055-12.304 9.642-2.315 4.59-2.475 10.289-.438 15.635 2.035 5.34 5.94 9.483 10.714 11.366.817.322 1.261 1.207 1.032 2.055s-1.067 1.386-1.926 1.256c-7.801-1.195-16.262 2.935-20.123 9.818-3.861 6.877-2.975 16.248 2.107 22.283.445.528.532 1.272.22 1.889-.311.617-.976.992-1.65.944-7.13-.454-14.501 3.904-17.529 10.368-3.034 6.464-1.668 14.918 3.247 20.102.567.597.632 1.513.155 2.184-.476.673-1.361.913-2.113.577-6.095-2.732-13.52-2.738-20.37-.017-6.849 2.721-12.245 7.822-14.804 13.994-2.558 6.167-2.355 13.585.558 20.352 2.914 6.77 8.164 12.02 14.404 14.402.696.266 1.143.948 1.108 1.692-.034.744-.542 1.381-1.26 1.582-6.801 1.896-11.575 9.382-10.425 16.347 1.151 6.963 8.089 12.509 15.127 12.125.78-.035 1.469.426 1.723 1.15.255.724 0 1.529-.624 1.975-4.584 3.277-7.723 8.695-8.61 14.864-.887 6.166.596 12.244 4.068 16.677 3.469 4.437 9.012 7.336 15.21 7.957 6.201.622 12.216-1.124 16.5-4.788.686-.586 1.707-.547 2.344.094.636.64.673 1.662.082 2.345-2.729 3.158-2.587 8.57.303 11.583 2.889 3.012 8.288 3.372 11.553.771.314-.25.694-.379 1.078-.379z" fill="#dbafa6"/></g><path d="m366.438 159.64c-4.376-7.02-12.38-12.072-20.69-13.773 1.844-5.297 2.547-10.84-.027-16.245-3.068-6.443-10.576-9.505-16.992-5.986-4.244 2.328-.495 8.639 3.777 6.462 4.185-2.132 6.679 3.052 6.444 6.44-.279 4.025-2.575 7.687-4.495 11.128-1.816 3.255.477 7.279 4.212 7.341 7.327.122 13.24 4.009 15.531 11.098 2.348 7.266-1.038 12.613-3.266 19.278-1.039 3.108.691 6.827 3.43 8.43 3.094 1.81 6.402.905 9.046-1.167 9.27-7.266 8.736-23.851 3.03-33.006z" fill="#fff"/></g><g><path d="m380.93 425.08c-.67 4.359-1.555 7.627-2.655 9.381-7.784 12.342-201.752 12.433-216.444 11.978-15.188-.48-24.618-114.621-11.383-119.584 1.208-.455 2.92-.918 5.079-1.382 36.266-7.842 198.427-16.9 212.482-4.409 12.781 11.358 16.917 77.644 12.921 104.016z" fill="#505578"/><path d="m180.449 448.288c-9.815 0-16.52-.058-18.672-.125-6.085-.192-11.147-12.269-15.047-35.894-4.791-29.019-7.848-82.92 3.111-87.03 1.272-.479 3.063-.968 5.323-1.453 18.141-3.923 67.526-8.165 114.87-9.867 33.212-1.194 90.258-2.021 99.12 5.855 13.686 12.162 17.489 79.107 13.48 105.563 0 .001 0 .002-.001.004-.741 4.824-1.689 8.107-2.898 10.035-1.487 2.357-5.429 8.608-107.043 11.596-35.495 1.045-71.087 1.316-92.243 1.316zm127.938-131.666c-11.445 0-24.268.244-38.228.746-47.169 1.696-96.294 5.905-114.267 9.792-2.095.45-3.721.89-4.836 1.31-2.274.853-4.993 9.047-5.179 29.337-.153 16.676 1.439 36.826 4.258 53.901 4.275 25.897 9.398 32.933 11.751 33.007 6.77.209 58.814.336 110.707-1.19 92.582-2.723 103.18-8.33 104.224-9.984.644-1.028 1.588-3.379 2.408-8.719 4.247-28.029-.804-92.197-12.361-102.467-4.187-3.721-25.646-5.733-58.477-5.733zm72.543 108.458h.007z" fill="#202540"/></g><g><path d="m337.119 335.441c11.108 2.429 13.964 17.558 16.072 26.969 2.65 11.824 4.448 24.008 6.154 35.949.525 3.68 6.275 3.312 7.079 0 3.568-14.699 2.127-29.206-2.953-43.475-4.121-11.575-10.466-25.376-24.173-27.345-5.067-.728-7.453 6.749-2.179 7.902z" fill="#656b96"/></g><g opacity=".5"><path d="m380.93 425.08c-.67 4.359-1.555 7.627-2.655 9.381-7.784 12.342-201.752 12.433-216.444 11.978-15.188-.48-24.618-114.621-11.383-119.584 1.208-.455 2.92-.918 5.079-1.382.331 1.315.645 2.564 1.059 3.574 2.242 5.427 5.178 10.638 8.38 15.552 6.303 9.67 14.104 18.348 22.815 25.909 15.353 13.327 33.412 23.237 52.124 31.178 44.281 18.786 93.054 26.835 141.025 23.394z" fill="#323659"/></g><g><g><g><ellipse cx="321.146" cy="208.337" fill="#fff" rx="29.81" ry="29.81" transform="matrix(.257 -.967 .967 .257 37.332 465.219)"/><path d="m321.146 239.872c-17.388 0-31.535-14.147-31.535-31.535s14.147-31.535 31.535-31.535 31.535 14.147 31.535 31.535-14.147 31.535-31.535 31.535zm0-59.62c-15.486 0-28.085 12.599-28.085 28.085s12.599 28.085 28.085 28.085 28.085-12.599 28.085-28.085-12.599-28.085-28.085-28.085z"/></g><path d="m334.206 209.714c0 9.862-7.997 17.859-17.859 17.859s-17.859-7.997-17.859-17.859c0-9.868 7.997-17.865 17.859-17.865 4.347 0 8.337 1.559 11.432 4.143-.261.142-.522.295-.777.459-4.585 2.908-6.824 7.606-4.999 10.497 1.831 2.885 7.039 2.868 11.63-.04.108-.068.215-.136.317-.21.171.982.256 1.991.256 3.016z"/></g><g><g><circle cx="205.868" cy="208.337" fill="#fff" r="29.81"/><path d="m205.868 239.872c-17.388 0-31.535-14.147-31.535-31.535s14.147-31.535 31.535-31.535 31.535 14.147 31.535 31.535-14.147 31.535-31.535 31.535zm0-59.62c-15.486 0-28.085 12.599-28.085 28.085s12.599 28.085 28.085 28.085 28.085-12.599 28.085-28.085-12.599-28.085-28.085-28.085z"/></g><path d="m192.807 209.714c0 9.862 7.997 17.859 17.859 17.859s17.859-7.997 17.859-17.859c0-1.026-.085-2.035-.255-3.015-.108.068-.215.142-.323.21-4.585 2.908-9.794 2.925-11.625.04-1.825-2.891.408-7.589 4.999-10.497.255-.164.516-.317.776-.459-3.095-2.585-7.085-4.143-11.432-4.143-9.86 0-17.858 7.997-17.858 17.864z"/></g><g><ellipse cx="221.959" cy="144.894" fill="#dba59a" rx="17.431" ry="9.329" transform="matrix(.972 -.236 .236 .972 -27.889 56.372)"/><path d="m216.987 156.579c-7.065 0-12.553-2.666-13.646-7.172-1.46-6.025 5.574-12.726 16.013-15.257 10.44-2.531 19.761.206 21.221 6.23 1.46 6.024-5.574 12.726-16.013 15.257-2.631.638-5.193.942-7.575.942zm9.894-19.913c-2.055 0-4.321.258-6.714.838-8.995 2.18-14.32 7.595-13.472 11.09s8.062 5.872 17.055 3.69c8.994-2.181 14.319-7.595 13.472-11.09-.621-2.566-4.673-4.528-10.341-4.528z" fill="#c27b6c"/></g><g><ellipse cx="302.987" cy="148.27" fill="#dba59a" rx="9.329" ry="17.431" transform="matrix(.375 -.927 .927 .375 51.947 373.579)"/><path d="m309.917 160.836c-3.466 0-7.318-.799-11.075-2.318-9.958-4.027-15.938-11.683-13.615-17.429 1.183-2.928 4.245-4.8 8.62-5.27 3.989-.428 8.707.353 13.283 2.203 9.957 4.027 15.938 11.683 13.615 17.43-1.183 2.928-4.245 4.8-8.62 5.27-.714.076-1.452.114-2.208.114zm-13.841-21.683c-.638 0-1.259.032-1.858.096-3.006.324-5.117 1.465-5.791 3.133-1.348 3.334 3.13 9.468 11.71 12.937 4.057 1.641 8.184 2.342 11.62 1.971 3.006-.323 5.117-1.465 5.791-3.133 1.348-3.334-3.13-9.467-11.71-12.937-3.35-1.354-6.746-2.067-9.762-2.067z" fill="#c27b6c"/></g><g><path d="m326.639 179.552c-13.957-2.596-27.435 5.217-32.455 17.948l56.285 10.59c-.049-13.734-9.831-25.934-23.83-28.538z" fill="#fff8f5"/><path d="m350.469 209.816c-.107 0-.213-.01-.319-.03l-56.285-10.59c-.506-.095-.943-.411-1.191-.861-.249-.451-.284-.988-.095-1.467 5.407-13.715 19.862-21.711 34.375-19.012 14.573 2.71 25.187 15.423 25.24 30.229.002.515-.226 1.003-.621 1.332-.313.259-.704.399-1.104.399zm-53.833-13.61 52.02 9.788c-.982-12.235-10.083-22.468-22.333-24.746-12.194-2.268-24.346 3.964-29.687 14.958z"/></g><g><path d="m200.548 179.552c13.958-2.596 27.436 5.217 32.455 17.948l-56.285 10.59c.049-13.734 9.832-25.934 23.83-28.538z" fill="#fff8f5"/><path d="m176.718 209.816c-.4 0-.791-.139-1.104-.399-.396-.329-.623-.817-.621-1.332.053-14.805 10.668-27.518 25.24-30.229 14.511-2.699 28.968 5.297 34.375 19.012.189.479.154 1.017-.095 1.467s-.685.766-1.191.861l-56.285 10.59c-.106.02-.212.03-.319.03zm24.146-28.568c-12.249 2.278-21.35 12.51-22.332 24.746l52.02-9.788c-5.343-10.993-17.496-17.226-29.688-14.958zm-.316-1.696h.007z"/></g><g><g><path d="m292.004 267.939c1.538-8.668 1.693-17.72 1.181-26.363-18.843 8.699-41.731 8.067-60.065-1.658-.436 12.71.792 26.826 5.377 38.688 2.417 6.254 5.591 12.372 10.448 16.995 1.482 1.41 3.142 2.663 4.921 3.701 1.788-8.337 6.1-16.613 12.395-22.908 6.235-6.236 16.389-9.531 25.743-8.455z" fill="#a12f2f"/><path d="m253.865 301.027c-.301 0-.602-.079-.869-.235-1.885-1.1-3.648-2.426-5.242-3.941-4.378-4.167-7.831-9.767-10.868-17.623-5.193-13.438-5.853-28.826-5.492-39.369.02-.594.345-1.137.86-1.434.515-.298 1.147-.31 1.673-.031 17.805 9.445 40.234 10.064 58.534 1.616.517-.239 1.121-.207 1.609.086.489.293.802.809.836 1.378.596 10.075.203 18.83-1.204 26.766-.159.898-.985 1.521-1.896 1.412-8.915-1.026-18.465 2.099-24.327 7.961-5.91 5.91-10.146 13.741-11.928 22.05-.116.541-.484.993-.99 1.217-.222.098-.459.147-.696.147zm-19.088-58.343c-.146 10.035.768 23.503 5.328 35.3 2.846 7.364 6.033 12.565 10.028 16.367.827.787 1.706 1.516 2.629 2.179 2.175-8.049 6.479-15.557 12.278-21.357 6.217-6.218 16.078-9.702 25.526-9.095 1.04-6.593 1.377-13.801 1.024-21.922-17.959 7.457-39.264 6.901-56.813-1.472z"/></g><g><path d="m266.26 276.394c-6.296 6.296-10.607 14.571-12.395 22.908 4.053 2.366 8.728 3.605 13.343 2.962 5.198-.724 9.886-3.751 13.374-7.672s5.881-8.695 7.809-13.576c1.651-4.18 2.814-8.578 3.612-13.077-9.353-1.076-19.507 2.219-25.743 8.455z" fill="#ff4a4a"/><path d="m264.728 304.16c-3.914 0-7.92-1.144-11.732-3.368-.644-.376-.974-1.123-.817-1.852 1.919-8.951 6.487-17.392 12.862-23.766 6.578-6.578 17.239-10.089 27.161-8.949.472.054.902.302 1.186.683s.398.864.315 1.332c-.86 4.847-2.107 9.359-3.707 13.41-2.4 6.08-4.982 10.557-8.124 14.089-4.077 4.582-9.2 7.507-14.425 8.234-.899.125-1.807.187-2.719.187zm-8.89-5.742c3.689 1.903 7.515 2.64 11.132 2.137 4.415-.614 8.791-3.139 12.323-7.11 2.865-3.221 5.246-7.372 7.494-13.063 1.31-3.317 2.372-6.97 3.165-10.884-8.369-.43-17.015 2.657-22.472 8.114-5.614 5.616-9.718 12.962-11.642 20.806z"/></g></g></g><g><path d="m66.653 334.322c11.047 16.159 23.51 31.473 38.273 44.327s31.915 23.217 50.703 28.709c3.454 1.01 7.049 1.861 10.624 1.442 3.574-.419 7.16-2.333 8.701-5.585 2.768-5.839-1.868-12.285-5.853-17.371-15.682-20.014-25.275-44.736-27.198-70.09z" fill="#fadccd"/><path d="m164.344 410.633c-3.158 0-6.267-.762-9.199-1.62-17.952-5.247-35.23-15.025-51.352-29.064-13.362-11.635-25.976-26.241-38.564-44.654-.538-.786-.336-1.86.45-2.398s1.86-.336 2.398.451c12.42 18.167 24.844 32.56 37.982 44 15.744 13.708 32.585 23.248 50.054 28.354 3.233.944 6.676 1.766 9.939 1.384 2.64-.309 5.955-1.683 7.343-4.61 2.277-4.804-1.724-10.555-5.652-15.569-15.832-20.206-25.62-45.428-27.56-71.023-.072-.95.64-1.779 1.59-1.85.958-.076 1.779.639 1.851 1.59 1.889 24.921 11.419 49.481 26.835 69.155 3.529 4.504 9.435 12.041 6.054 19.174-1.665 3.514-5.519 6.027-10.059 6.559-.704.083-1.408.121-2.11.121z" fill="#dbafa6"/></g><g><path d="m442.987 334.322c-11.047 16.159-23.51 31.473-38.273 44.327s-31.915 23.217-50.703 28.709c-3.454 1.01-7.049 1.861-10.624 1.442-3.574-.419-7.159-2.333-8.701-5.585-2.768-5.839 1.868-12.285 5.853-17.371 15.682-20.014 25.275-44.736 27.198-70.09z" fill="#fff8f5"/><path d="m345.296 410.633c-.702 0-1.405-.038-2.11-.12-4.539-.532-8.393-3.045-10.059-6.559-3.382-7.133 2.524-14.671 6.053-19.174 15.415-19.674 24.946-44.234 26.836-69.155.072-.95.894-1.664 1.851-1.59.949.072 1.662.901 1.59 1.85-1.941 25.595-11.729 50.818-27.561 71.023-3.928 5.013-7.929 10.765-5.652 15.569 1.387 2.927 4.702 4.301 7.343 4.61 3.264.381 6.706-.439 9.939-1.384 17.471-5.106 34.312-14.646 50.054-28.354 13.137-11.439 25.561-25.831 37.982-44 .537-.786 1.611-.988 2.398-.451.786.538.988 1.611.45 2.398-12.588 18.414-25.203 33.021-38.564 44.654-16.121 14.038-33.399 23.816-51.352 29.064-2.93.857-6.039 1.619-9.198 1.619z" fill="#dbafa6"/></g></g></svg>